<?xml version="1.0" encoding="utf-8"?>
<!-- Generator: Adobe Illustrator 15.1.0, SVG Export Plug-In . SVG Version: 6.00 Build 0)  -->
<!DOCTYPE svg PUBLIC "-//W3C//DTD SVG 1.1//EN" "http://www.w3.org/Graphics/SVG/1.1/DTD/svg11.dtd">
<svg version="1.1" xmlns="http://www.w3.org/2000/svg" xmlns:xlink="http://www.w3.org/1999/xlink" x="0px" y="0px" width="278px"
	 height="278px" viewBox="0 0 278 278" enable-background="new 0 0 278 278" xml:space="preserve">
<pattern  x="-951" y="-9" width="225" height="224" patternUnits="userSpaceOnUse" id="New_Pattern_Swatch_2" viewBox="0 -224 225 224" overflow="visible">
	<g>
		<polygon fill="none" points="0,0 225,0 225,-224 0,-224 		"/>
		<polygon fill="#D13F34" points="225,0 0,0 0,-224 225,-224 		"/>
		<path fill="#F7F0E4" d="M56-172.637c0,2.561-2.076,4.637-4.637,4.637H4.637C2.076-168,0-170.076,0-172.637v-46.727
			C0-221.924,2.076-224,4.637-224h46.727c2.561,0,4.637,2.076,4.637,4.637V-172.637z"/>
		<path fill="#F7F0E4" d="M112-116.637c0,2.561-2.076,4.637-4.636,4.637H60.636c-2.561,0-4.636-2.076-4.636-4.637v-46.727
			c0-2.561,2.076-4.637,4.636-4.637h46.728c2.561,0,4.636,2.076,4.636,4.637V-116.637z"/>
		<path fill="#F7F0E4" d="M168-172.637c0,2.561-2.076,4.637-4.637,4.637h-46.726c-2.561,0-4.637-2.076-4.637-4.637v-46.727
			c0-2.561,2.076-4.637,4.637-4.637h46.726c2.561,0,4.637,2.076,4.637,4.637V-172.637z"/>
		<path fill="#F7F0E4" d="M56-60.637C56-58.076,53.924-56,51.363-56H4.637C2.076-56,0-58.076,0-60.637v-46.727
			C0-109.924,2.076-112,4.637-112h46.727c2.561,0,4.637,2.076,4.637,4.637V-60.637z"/>
		<path fill="#F7F0E4" d="M112-5.636C112-3.075,109.924-1,107.364-1H60.636C58.076-1,56-3.075,56-5.636v-46.729
			C56-54.925,58.076-57,60.636-57h46.728c2.561,0,4.636,2.075,4.636,4.636V-5.636z"/>
		<path fill="#F7F0E4" d="M168-60.638c0,2.562-2.076,4.638-4.637,4.638h-46.726c-2.561,0-4.637-2.076-4.637-4.638v-46.725
			c0-2.562,2.076-4.638,4.637-4.638h46.726c2.561,0,4.637,2.076,4.637,4.638V-60.638z"/>
		<path fill="#F7F0E4" d="M224-116.637c0,2.561-2.076,4.637-4.636,4.637h-46.728c-2.561,0-4.636-2.076-4.636-4.637v-46.727
			c0-2.561,2.076-4.637,4.636-4.637h46.728c2.561,0,4.636,2.076,4.636,4.637V-116.637z"/>
		<path fill="#F7F0E4" d="M225-5.012C225-2.45,222.433,0,219.873,0h-46.972C170.341,0,168-2.45,168-5.012v-46.971
			c0-2.561,2.341-5.018,4.901-5.018h46.972c2.56,0,5.127,2.457,5.127,5.018V-5.012z"/>
	</g>
</pattern>
<g id="Layer_2">
	
		<pattern  id="SVGID_1_" xlink:href="#New_Pattern_Swatch_2" patternTransform="matrix(-1.1471 0 0 -1.1613 -15105.8242 -16936.7734)">
	</pattern>
	<rect x="-849" y="558" fill="url(#SVGID_1_)" width="278" height="278"/>
	<linearGradient id="SVGID_2_" gradientUnits="userSpaceOnUse" x1="-849" y1="697" x2="-571" y2="697">
		<stop  offset="0" style="stop-color:#FFFFFF;stop-opacity:0"/>
		<stop  offset="1" style="stop-color:#801A1E;stop-opacity:0.3"/>
	</linearGradient>
	<rect x="-849" y="558" fill="url(#SVGID_2_)" width="278" height="278"/>
	<g opacity="0.48">
		<path fill="#874242" d="M-836,573v263h265V573H-836z M-588,814h-231V596h231V814z"/>
	</g>
	<linearGradient id="SVGID_3_" gradientUnits="userSpaceOnUse" x1="-1559.5" y1="22" x2="-1559.5" y2="225.8485">
		<stop  offset="0" style="stop-color:#FFFFFF;stop-opacity:0"/>
		<stop  offset="1" style="stop-color:#801A1E;stop-opacity:0.3"/>
	</linearGradient>
	<rect x="-1695" y="22" fill="url(#SVGID_3_)" width="271" height="203"/>
	<g>
		<path fill="#80D8FF" d="M-849,558v278h278V558H-849z M-589,813h-242V582h242V813z"/>
	</g>
	
		<pattern  id="SVGID_4_" xlink:href="#New_Pattern_Swatch_2" patternTransform="matrix(-1.1471 0 0 -1.1613 -15031.1494 -17494.7148)">
	</pattern>
	<rect fill="url(#SVGID_4_)" width="278" height="278"/>
	<linearGradient id="SVGID_5_" gradientUnits="userSpaceOnUse" x1="0" y1="139" x2="278" y2="139">
		<stop  offset="0.0121" style="stop-color:#FFFFFF;stop-opacity:0.4"/>
		<stop  offset="0.2805" style="stop-color:#D3B0B2;stop-opacity:0.478"/>
		<stop  offset="0.525" style="stop-color:#B07072;stop-opacity:0.549"/>
		<stop  offset="0.7295" style="stop-color:#964145;stop-opacity:0.6084"/>
		<stop  offset="0.8859" style="stop-color:#862528;stop-opacity:0.6539"/>
		<stop  offset="0.9758" style="stop-color:#801A1E;stop-opacity:0.68"/>
	</linearGradient>
	<rect fill="url(#SVGID_5_)" width="278" height="278"/>
	<g opacity="0.48">
		<path fill="#874242" d="M13,15v263h265V15H13z M261,256H30V38h231V256z"/>
	</g>
	<g>
		<path fill="#8BFF48" d="M0,0v278h278V0H0z M260,255H18V24h242V255z"/>
	</g>
	
		<pattern  id="SVGID_6_" xlink:href="#New_Pattern_Swatch_2" patternTransform="matrix(-1.1471 0 0 -1.1613 -14966.2578 -17495.2578)">
	</pattern>
	<rect x="323" fill="url(#SVGID_6_)" width="278" height="278"/>
	<linearGradient id="SVGID_7_" gradientUnits="userSpaceOnUse" x1="323" y1="139" x2="601" y2="139">
		<stop  offset="0.0121" style="stop-color:#FFFFFF;stop-opacity:0.4"/>
		<stop  offset="0.2805" style="stop-color:#D3B0B2;stop-opacity:0.478"/>
		<stop  offset="0.525" style="stop-color:#B07072;stop-opacity:0.549"/>
		<stop  offset="0.7295" style="stop-color:#964145;stop-opacity:0.6084"/>
		<stop  offset="0.8859" style="stop-color:#862528;stop-opacity:0.6539"/>
		<stop  offset="0.9758" style="stop-color:#801A1E;stop-opacity:0.68"/>
	</linearGradient>
	<rect x="323" fill="url(#SVGID_7_)" width="278" height="278"/>
	<g opacity="0.48">
		<path fill="#874242" d="M336,15v263h265V15H336z M584,256H353V38h231V256z"/>
	</g>
	<g>
		<path fill="#FF5CE0" d="M323,0v278h278V0H323z M583,255H341V24h242V255z"/>
	</g>
	
		<pattern  id="SVGID_8_" xlink:href="#New_Pattern_Swatch_2" patternTransform="matrix(-1.1471 0 0 -1.1613 -14890.3662 -17494.6719)">
	</pattern>
	<rect x="657" fill="url(#SVGID_8_)" width="278" height="278"/>
	<linearGradient id="SVGID_9_" gradientUnits="userSpaceOnUse" x1="657" y1="139" x2="935" y2="139">
		<stop  offset="0.0121" style="stop-color:#FFFFFF;stop-opacity:0.4"/>
		<stop  offset="0.2805" style="stop-color:#D3B0B2;stop-opacity:0.478"/>
		<stop  offset="0.525" style="stop-color:#B07072;stop-opacity:0.549"/>
		<stop  offset="0.7295" style="stop-color:#964145;stop-opacity:0.6084"/>
		<stop  offset="0.8859" style="stop-color:#862528;stop-opacity:0.6539"/>
		<stop  offset="0.9758" style="stop-color:#801A1E;stop-opacity:0.68"/>
	</linearGradient>
	<rect x="657" fill="url(#SVGID_9_)" width="278" height="278"/>
	<g opacity="0.48">
		<path fill="#874242" d="M670,15v263h265V15H670z M918,256H687V38h231V256z"/>
	</g>
	<g>
		<path fill="#80D8FF" d="M657,0v278h278V0H657z M917,255H675V24h242V255z"/>
	</g>
	<g>
		
			<pattern  id="SVGID_10_" xlink:href="#New_Pattern_Swatch_2" patternTransform="matrix(-1.1506 0 0 -1.1648 -15296.7881 -17286.9648)">
		</pattern>
		<rect x="-1250" fill="url(#SVGID_10_)" width="278" height="278"/>
		<linearGradient id="SVGID_11_" gradientUnits="userSpaceOnUse" x1="-1250" y1="139" x2="-972" y2="139">
			<stop  offset="0" style="stop-color:#FFFFFF;stop-opacity:0"/>
			<stop  offset="1" style="stop-color:#801A1E;stop-opacity:0.3"/>
		</linearGradient>
		<rect x="-1250" fill="url(#SVGID_11_)" width="278" height="278"/>
		<g opacity="0.66">
			<path opacity="0.66" fill="#874242" d="M-1237,15v263h265V15H-1237z M-989,256h-231V38h231V256z"/>
		</g>
		<g>
			<path fill="#D422FF" d="M-1250,0v274h278V0H-1250z M-990,255h-242V24h242V255z"/>
		</g>
	</g>
	<g>
		
			<pattern  id="SVGID_12_" xlink:href="#New_Pattern_Swatch_2" patternTransform="matrix(-1.1471 0 0 -1.1613 -15721.041 -16977.7305)">
		</pattern>
		<rect x="-948" y="-3" fill="url(#SVGID_12_)" width="278" height="278"/>
		<linearGradient id="SVGID_13_" gradientUnits="userSpaceOnUse" x1="-948" y1="136" x2="-670" y2="136">
			<stop  offset="0" style="stop-color:#FFFFFF;stop-opacity:0"/>
			<stop  offset="1" style="stop-color:#801A1E;stop-opacity:0.3"/>
		</linearGradient>
		<rect x="-948" y="-3" fill="url(#SVGID_13_)" width="278" height="278"/>
		<g opacity="0.48">
			<path opacity="0.66" fill="#874242" d="M-935,12v263h265V12H-935z M-687,253h-231V35h231V253z"/>
		</g>
		<g>
			<path fill="#FFE524" d="M-948-3v278h278V-3H-948z M-688,252h-242V21h242V252z"/>
		</g>
	</g>
	<polygon opacity="0.66" fill="#874242" points="-1353,544 -1534.027,544 -1549,527.787 -1549,262 -1371,262 -1353,281.758 	"/>
	<g>
		
			<pattern  id="SVGID_14_" xlink:href="#New_Pattern_Swatch_2" patternTransform="matrix(-1.1471 0 0 -1.1613 -15152.9326 -17234.6406)">
		</pattern>
		<rect x="-638" fill="url(#SVGID_14_)" width="278" height="278"/>
		<linearGradient id="SVGID_15_" gradientUnits="userSpaceOnUse" x1="-638" y1="139" x2="-360" y2="139">
			<stop  offset="0" style="stop-color:#FFFFFF;stop-opacity:0"/>
			<stop  offset="1" style="stop-color:#801A1E;stop-opacity:0.3"/>
		</linearGradient>
		<rect x="-638" fill="url(#SVGID_15_)" width="278" height="278"/>
		<g opacity="0.66">
			<path fill="#874242" d="M-625,15v263h265V15H-625z M-377,256h-231V38h231V256z"/>
		</g>
		<g>
			<path fill="#8080FF" d="M-638,0v278h278V0H-638z M-378,255h-242V24h242V255z"/>
		</g>
	</g>
	<g>
		
			<pattern  id="SVGID_16_" xlink:href="#New_Pattern_Swatch_2" patternTransform="matrix(-1.1471 0 0 -1.1613 -15097.041 -17237.6406)">
		</pattern>
		<rect x="-324" y="-3" fill="url(#SVGID_16_)" width="278" height="278"/>
		<linearGradient id="SVGID_17_" gradientUnits="userSpaceOnUse" x1="-324" y1="136" x2="-46" y2="136">
			<stop  offset="0" style="stop-color:#FFFFFF;stop-opacity:0"/>
			<stop  offset="1" style="stop-color:#801A1E;stop-opacity:0.3"/>
		</linearGradient>
		<rect x="-324" y="-3" fill="url(#SVGID_17_)" width="278" height="278"/>
		<g opacity="0.66">
			<path opacity="0.66" fill="#874242" d="M-311,12v263h265V12H-311z M-63,253h-231V35h231V253z"/>
		</g>
		<g>
			<path fill="#FF0000" d="M-324-3v278h278V-3H-324z M-64,252h-242V21h242V252z"/>
		</g>
	</g>
	<ellipse opacity="0.66" fill="#874242" cx="-166.842" cy="193.742" rx="75.957" ry="46.162"/>
	<g opacity="0.66">
		<path fill="#874242" d="M148.001,77.202c-42.723,0-77.356,34.634-77.356,77.356s34.634,77.356,77.356,77.356
			c42.722,0,77.355-34.634,77.355-77.356S190.723,77.202,148.001,77.202z M148.103,198.581c-24.313,0-44.022-19.71-44.022-44.023
			c0-24.313,19.71-44.022,44.022-44.022c24.313,0,44.023,19.71,44.023,44.022C192.126,178.871,172.416,198.581,148.103,198.581z"/>
	</g>
	<g>
		<path fill="#8BFF48" d="M139.001,61.702c-42.723,0-77.356,34.634-77.356,77.356s34.634,77.356,77.356,77.356
			c42.722,0,77.355-34.634,77.355-77.356S181.723,61.702,139.001,61.702z M139.103,183.081c-24.313,0-44.022-19.71-44.022-44.023
			c0-24.313,19.71-44.022,44.022-44.022c24.313,0,44.023,19.71,44.023,44.022C183.126,163.371,163.416,183.081,139.103,183.081z"/>
	</g>
</g>
<g id="Layer_1">
	
		<image overflow="visible" width="278" height="278" xlink:href="lemonade stand/old images to replace/icon-sugar.gif"  transform="matrix(1 0 0 1 -1249.5801 -320.5957)">
	</image>
	
		<image overflow="visible" width="278" height="278" xlink:href="lemonade stand/old images to replace/icon-lemon.gif"  transform="matrix(1 0 0 1 -947.9995 -317.5957)">
	</image>
	<ellipse opacity="0.66" fill="#874242" cx="-798.925" cy="201.687" rx="76.874" ry="44.409"/>
	<ellipse opacity="0.66" fill="#874242" cx="-483.842" cy="195.742" rx="75.957" ry="46.162"/>
	<ellipse opacity="0.66" fill="#874242" cx="-766.04" cy="151.568" rx="48.989" ry="28.916"/>
	<g>
		<g>
			<path fill="#FFE524" d="M-882.107,67.04c4.338-7.765,4.773-15.357,27.141-15.407c0.797-0.002,1.514,0.06,2.17,0.164
				c18.703-11.989,47.404-11.767,73.057,2.563c26.525,14.815,41.922,40.314,40.4,63.12c7.117,5.244,14.688,12.021,16.408,18.094
				c2.424,8.561-19.316,19.78-29.564,14.056c-0.826-0.461-1.672-0.849-2.527-1.193c0.004-0.002,0.008-0.005,0.014-0.008
				c0,0-11.793-37.701-30.137-56.045c-19.482-19.483-81.961,5.801-81.963,19.407c-2.783-5.997-4.57-12.161-5.236-18.253
				C-872.354,93.528-886.445,74.806-882.107,67.04z"/>
			<path fill="#FFE20D" d="M-756.59,148.437c-0.643,0.283-1.27,0.544-1.906,0.818c0.469-0.34,0.938-0.68,1.391-1.035
				C-756.932,148.284-756.762,148.365-756.59,148.437z"/>
			<path fill="#F7CE26" d="M-783.084,90.322c26.936,20.634,28.074,58.106,28.074,58.106c-0.006,0.003-0.01,0.006-0.014,0.008
				c-0.174-0.071-0.344-0.152-0.518-0.217c-0.453,0.355-0.922,0.695-1.391,1.035c-10.908,4.703-20.797,7.94-29.736,9.95
				c-14.463,0.879-30.484-2.669-45.471-11.039c-16.324-9.117-28.424-22.283-34.971-36.375
				C-867.107,98.185-822.869,59.85-783.084,90.322z"/>
		</g>
		<g>
			<circle fill="#FFEF5C" cx="-827.244" cy="159.315" r="61.094"/>
			<circle fill="#FFFED7" cx="-827.124" cy="159.502" r="54.851"/>
			<circle fill="#EEC25F" cx="-827.397" cy="159.271" r="47.532"/>
			<circle fill="#FFFED7" cx="-827.101" cy="159.444" r="9.11"/>
			
				<line fill="none" stroke="#FFFED7" stroke-width="1.5182" stroke-miterlimit="10" x1="-827.1" y1="168.555" x2="-827.398" y2="206.805"/>
			
				<line fill="none" stroke="#FFFED7" stroke-width="1.5182" stroke-miterlimit="10" x1="-840.82" y1="114.05" x2="-830.883" y2="150.986"/>
			
				<line fill="none" stroke="#FFFED7" stroke-width="1.5182" stroke-miterlimit="10" x1="-872.24" y1="145.277" x2="-835.9" y2="157.208"/>
			
				<line fill="none" stroke="#FFFED7" stroke-width="1.5182" stroke-miterlimit="10" x1="-819.611" y1="162.484" x2="-783.268" y2="174.414"/>
			
				<line fill="none" stroke="#FFFED7" stroke-width="1.5949" stroke-miterlimit="10" x1="-820.746" y1="155.299" x2="-785.432" y2="132.174"/>
			
				<line fill="none" stroke="#FFFED7" stroke-width="1.5949" stroke-miterlimit="10" x1="-866.291" y1="186.168" x2="-830.979" y2="163.045"/>
		</g>
	</g>
	<ellipse opacity="0.66" fill="#874242" cx="-1134.639" cy="191.735" rx="44.773" ry="22.228"/>
	
		<ellipse transform="matrix(0.7923 0.6101 -0.6101 0.7923 -102.9261 685.3738)" opacity="0.66" fill="#874242" cx="-1058.21" cy="191.499" rx="50.237" ry="43.738"/>
	<ellipse opacity="0.66" fill="#874242" cx="-1110.159" cy="116.761" rx="49.612" ry="38.286"/>
	<g>
		<path fill="#F6F2F9" d="M-1101.068,118.58c-0.864,1.711-2.954,2.396-4.663,1.529l-36.1-18.256
			c-1.711-0.863-2.397-2.952-1.532-4.663l18.256-36.101c0.865-1.709,2.952-2.393,4.664-1.53l36.098,18.255
			c1.711,0.868,2.396,2.956,1.532,4.666L-1101.068,118.58z"/>
		<path fill="#E5D9E8" d="M-1082.221,81.408c-0.815,1.61-3.076,2.632-4.794,1.764l-35.959-18.185
			c-1.715-0.867-2.233-3.298-1.42-4.908l12.373-11.238c0.814-1.609,2.958-2.391,4.675-1.523l24.416,12.348
			c1.714,0.868,2.356,3.059,1.542,4.669L-1082.221,81.408z"/>
		<path fill="#F6F2F9" d="M-1150.009,200.202c-1.546,1.132-3.719,0.795-4.849-0.752l-23.884-32.648
			c-1.133-1.548-0.795-3.721,0.752-4.853l32.648-23.886c1.547-1.132,3.719-0.793,4.852,0.753l23.883,32.648
			c1.132,1.548,0.796,3.721-0.751,4.852L-1150.009,200.202z"/>
		<path fill="#E5D9E8" d="M-1116.387,174.818c-1.458,1.063-3.926,0.967-5.044-0.561l-23.431-32.029
			c-1.119-1.53-0.463-3.912,0.993-4.978l16.072-4.473c1.456-1.067,3.707-0.808,4.824,0.72l15.91,21.749
			c1.118,1.529,0.683,3.751-0.775,4.815L-1116.387,174.818z"/>
		<path fill="#F6F2F9" d="M-1025,208.091c0,2.711-2.199,4.909-4.911,4.909h-57.179c-2.712,0-4.911-2.198-4.911-4.909v-57.182
			c0-2.711,2.199-4.909,4.911-4.909h57.179c2.712,0,4.911,2.198,4.911,4.909V208.091z"/>
		<path fill="#E5D9E8" d="M-1024.706,148.846c0,2.555-2.199,4.154-4.913,4.154h-56.843c-2.713,0-4.911-1.6-4.911-4.154l8.42-22.007
			c0-2.552,2.198-4.839,4.913-4.839h38.597c2.712,0,4.914,2.287,4.914,4.839L-1024.706,148.846z"/>
	</g>
	
		<image overflow="visible" width="472" height="473" xlink:href="lemonade stand/old images to replace/icon-strawberry.gif"  transform="matrix(1 0 0 1 -324 -509)">
	</image>
	
		<image overflow="visible" width="472" height="473" xlink:href="lemonade stand/old images to replace/icon-x.gif"  transform="matrix(1 0 0 1 1227.874 -509)">
	</image>
	
		<image overflow="visible" width="472" height="473" xlink:href="lemonade stand/old images to replace/icon-check.gif"  transform="matrix(1 0 0 1 708.9824 -509)">
	</image>
	
		<image overflow="visible" width="278" height="278" xlink:href="lemonade stand/old images to replace/icon-cup.gif"  transform="matrix(1 0 0 1 -633.5 -314)">
	</image>
	
		<image overflow="visible" width="472" height="473" xlink:href="lemonade stand/old images to replace/icon-o.gif"  transform="matrix(1 0 0 1 192.0322 -509)">
	</image>
	<path fill="#8080FF" d="M-203,490h-289.5l56.301,245h1.703c0,1-0.004,0.35-0.004,0.402c0,23.375,39.643,42.445,88.545,42.445
		c48.901,0,88.544-19.132,88.544-42.507c0-0.053-0.004,0.659-0.004-0.341h0.004L-203,490z"/>
	<ellipse fill="#F5F5F5" cx="-347.79" cy="490.199" rx="144.71" ry="53.443"/>
	<ellipse fill="#C5D6D4" cx="-347.705" cy="487.518" rx="130.795" ry="45.482"/>
	<g>
		<g>
			<path fill="#8080FF" d="M-574.318,205.154c0-0.012-0.002-0.024-0.002-0.036C-574.32,205.091-574.318,205.863-574.318,205.154z"/>
			<path fill="#8080FF" d="M-605.5,73l30.266,132H-574c0,0.066,0,0.104,0,0.154c0,12.549,21.175,22.732,47.439,22.732
				c11.749,0,22.416-2.044,30.719-5.422L-473.661,73H-605.5z"/>
			<path fill="#7676E5" d="M-479,205.146c0-0.048,0-0.083,0-0.146h-0.122l29.251-132h-23.79l-22.198,149.465
				C-485.604,218.292-479,212.08-479,205.146z"/>
			<path fill="#8080FF" d="M-479.122,205.109c0,0.012-0.002,0.024-0.002,0.036C-479.124,205.868-479.122,205.083-479.122,205.109z"
				/>
		</g>
		<ellipse fill="#F5F5F5" cx="-527.707" cy="73.204" rx="77.793" ry="28.729"/>
		<g>
			<path fill="#D6E1E5" d="M-527.661,47.312c-18.286,0-34.938,2.429-47.445,6.407l5.767,37.733
				c11.664,2.99,26.075,4.761,41.679,4.761c38.833,0,70.312-10.947,70.312-24.451C-457.35,58.259-488.828,47.312-527.661,47.312z"/>
			<path fill="#C7D1D3" d="M-597.975,71.762c0,8.078,11.271,15.238,28.635,19.69l-5.767-37.733
				C-589.158,58.189-597.975,64.617-597.975,71.762z"/>
		</g>
	</g>
	<g>
		<g>
			<path fill="#EE2C26" d="M-163.626,115.651c-14.471-29.43-3.444-29.455-3.444-29.455s1.917-0.332,5.114-0.737
				c-23.774-10.521-53.355-13.769-72.918-9.758c-48.606,9.967-25.766,65.127-9.545,119.882c2.7,9.113,6.766,15.286,11.736,19.177
				C-218.129,202.187-150.702,141.937-163.626,115.651z"/>
			<path fill="#C42222" d="M-146.278,180.542c42.124-47.79,19.625-79.458-15.678-95.083c-3.197,0.405-5.114,0.737-5.114,0.737
				s-11.026,0.025,3.444,29.455c12.924,26.285-54.503,86.535-69.057,99.108C-207.797,234.246-160.112,196.238-146.278,180.542z"/>
		</g>
		<path fill="#7EA748" d="M-188.655,72.829c0,0-19.306-40.64-15.018-42.748S-188.494,51.009-188.655,72.829z"/>
		<path fill="#7EA748" d="M-202.977,76.005c0,0-35.468,3.297-39.943-10.175s15.407-25.965,30.384-18.456
			c14.979,7.507,20.024,24.972,20.024,24.972s-4.811-30.079,7.038-34.015c11.851-3.937,28.152,29.295,11.563,34.806
			c-16.589,5.513,27.202-7.792,37.175-2.794c9.971,4.997,24.055,16.5-6.015,26.488C-172.82,106.82-202.977,76.005-202.977,76.005"/>
		
			<ellipse transform="matrix(0.6794 0.7338 -0.7338 0.6794 85.0161 212.7044)" fill="#AA2121" cx="-200.901" cy="203.641" rx="3.331" ry="7.22"/>
		
			<ellipse transform="matrix(0.9007 0.4344 -0.4344 0.9007 63.7994 92.9014)" fill="#AA2121" cx="-171.352" cy="186.032" rx="3.332" ry="7.22"/>
		
			<ellipse transform="matrix(0.9552 0.296 -0.296 0.9552 39.6862 64.3877)" fill="#C42222" cx="-192.793" cy="163.255" rx="3.332" ry="7.22"/>
		
			<ellipse transform="matrix(0.9552 0.296 -0.296 0.9552 36.3264 53.9227)" fill="#AA2121" cx="-159.913" cy="146.927" rx="3.332" ry="7.22"/>
		
			<ellipse transform="matrix(0.9552 0.2959 -0.2959 0.9552 36.0008 47.3892)" fill="#AA2121" cx="-138.573" cy="142.641" rx="3.332" ry="7.221"/>
		
			<ellipse transform="matrix(0.9552 0.2961 -0.2961 0.9552 31.0719 60.6502)" fill="#C42222" cx="-184.728" cy="132.923" rx="3.331" ry="7.22"/>
		
			<ellipse transform="matrix(0.9486 -0.3166 0.3166 0.9486 -43.9145 -54.9036)" fill="#C42222" cx="-190.925" cy="107.696" rx="3.332" ry="7.22"/>
		
			<ellipse transform="matrix(0.7915 0.6112 -0.6112 0.7915 8.7338 158.3068)" fill="#C42222" cx="-227.629" cy="91.953" rx="3.332" ry="7.22"/>
		
			<ellipse transform="matrix(0.9552 0.2959 -0.2959 0.9552 42.3526 51.9652)" fill="#AA2121" cx="-150.517" cy="165.916" rx="3.332" ry="7.219"/>
		
			<ellipse transform="matrix(0.9552 0.2959 -0.2959 0.9552 32.8065 66.5597)" fill="#C42222" cx="-203.51" cy="141.672" rx="3.332" ry="7.22"/>
		
			<ellipse transform="matrix(0.9552 0.2959 -0.2959 0.9552 44.77 70.6305)" fill="#C42222" cx="-210.944" cy="183.213" rx="3.331" ry="7.22"/>
		
			<ellipse transform="matrix(0.9552 0.2959 -0.2959 0.9552 39.0448 75.2127)" fill="#C42222" cx="-228.936" cy="166.587" rx="3.333" ry="7.22"/>
		
			<ellipse transform="matrix(0.9687 -0.2481 0.2481 0.9687 -54.8715 -50.8871)" fill="#C42222" cx="-229.321" cy="192.25" rx="3.332" ry="7.22"/>
		<path fill="#C42222" d="M-228.239,142.881c-2.548,3.226-5.892,4.827-7.474,3.58c-1.582-1.248-0.799-4.874,1.749-8.099
			c2.544-3.227,5.891-4.828,7.472-3.581C-224.911,136.029-225.692,139.655-228.239,142.881z"/>
		
			<ellipse transform="matrix(0.9841 0.1777 -0.1777 0.9841 16.576 39.9212)" fill="#C42222" cx="-214.585" cy="112.501" rx="3.646" ry="7.44"/>
		<path fill="#FF7676" d="M-248.526,96.773c-2.804,4.673-6.356,7.692-7.935,6.745c-1.579-0.946-0.584-5.501,2.222-10.175
			c2.802-4.673,6.355-7.692,7.935-6.745C-244.727,87.545-245.72,92.099-248.526,96.773z"/>
		
			<ellipse transform="matrix(0.8574 0.5147 -0.5147 0.8574 14.824 144.2493)" fill="#FFCFCF" cx="-252.885" cy="98.875" rx="2.204" ry="6.527"/>
		<path fill="#FF7676" d="M-249.898,133.157c2.074,13.49,2.804,24.569,1.631,24.749c-1.173,0.181-3.805-10.604-5.878-24.096
			c-2.074-13.484-2.804-24.564-1.631-24.747S-251.972,119.665-249.898,133.157z"/>
		
			<ellipse transform="matrix(0.9884 -0.1517 0.1517 0.9884 -21.3355 -37.3475)" fill="#FFCFCF" cx="-255.385" cy="121.126" rx="1.126" ry="12.354"/>
		
			<ellipse transform="matrix(0.9083 0.4183 -0.4183 0.9083 27.1373 107.6534)" fill="#C42222" cx="-232.019" cy="115.734" rx="3.332" ry="7.221"/>
	</g>
	<path opacity="0.66" fill="#874242" d="M871.861,61.73c-4.688-2.964-35.221,26.852-70.329,68.252
		c-35.108-41.4-65.642-71.216-70.329-68.252c-4.88,3.086,20.048,40.608,56.322,85.098c-36.275,44.489-61.202,82.012-56.322,85.099
		c4.688,2.963,35.221-26.853,70.329-68.251c35.108,41.398,65.642,71.214,70.329,68.251c4.88-3.087-20.047-40.609-56.322-85.099
		C851.813,102.339,876.741,64.816,871.861,61.73z"/>
	<path opacity="0.66" fill="#874242" d="M550.281,86.367c-8.062-1.552-38.456,30.652-67.888,71.93
		c-15.074,21.142-26.97,40.561-33.906,54.685c-5.751-8.263-13.336-17.972-21.925-27.853c-20.382-23.45-38.649-38.942-40.805-34.603
		c-2.153,4.339,12.623,26.867,33.005,50.316c8.873,10.208,17.344,18.905,24.26,25.117c3.11,2.795,5.9,5.079,8.275,6.777
		c1.869-1.297,3.971-2.974,6.269-4.99c13.58-11.924,34.022-35.781,54.022-63.833C541.02,122.638,558.346,87.919,550.281,86.367z"/>
	<path fill="#80D8FF" d="M859.861,55.73c-4.688-2.964-35.221,26.852-70.329,68.252c-35.108-41.4-65.642-71.216-70.329-68.252
		c-4.88,3.086,20.048,40.608,56.322,85.098c-36.275,44.489-61.202,82.012-56.322,85.099c4.688,2.963,35.221-26.853,70.329-68.251
		c35.108,41.398,65.642,71.214,70.329,68.251c4.88-3.087-20.047-40.609-56.322-85.099C839.813,96.339,864.741,58.816,859.861,55.73z
		"/>
	<path fill="#FF5CE0" d="M543.281,67.367c-8.062-1.552-38.456,30.652-67.888,71.93c-15.074,21.142-26.97,40.561-33.906,54.685
		c-5.751-8.263-13.336-17.972-21.925-27.853c-20.382-23.45-38.649-38.942-40.805-34.603c-2.153,4.339,12.623,26.867,33.005,50.316
		c8.873,10.208,17.344,18.905,24.26,25.117c3.11,2.795,5.9,5.079,8.275,6.777c1.869-1.297,3.971-2.974,6.269-4.99
		c13.58-11.924,34.022-35.781,54.022-63.833C534.02,103.638,551.346,68.919,543.281,67.367z"/>
</g>
</svg>
