<?xml version="1.0" encoding="utf-8"?>
<!-- Generator: Adobe Illustrator 15.1.0, SVG Export Plug-In . SVG Version: 6.00 Build 0)  -->
<!DOCTYPE svg PUBLIC "-//W3C//DTD SVG 1.1//EN" "http://www.w3.org/Graphics/SVG/1.1/DTD/svg11.dtd">
<svg version="1.1" xmlns="http://www.w3.org/2000/svg" xmlns:xlink="http://www.w3.org/1999/xlink" x="0px" y="0px" width="1210px"
	 height="906.03px" viewBox="0 0 1210 906.03" enable-background="new 0 0 1210 906.03" xml:space="preserve">
<pattern  x="609" y="441.03" width="531" height="529" patternUnits="userSpaceOnUse" id="New_Pattern_Swatch_6" viewBox="0 -529 531 529" overflow="visible">
	<g>
		<polygon fill="none" points="0,0 531,0 531,-529 0,-529 		"/>
		<polygon fill="#D13F34" points="531,0 0,0 0,-529 531,-529 		"/>
		<path fill="#F7F0E4" d="M133-406.964c0,6.056-4.909,10.964-10.964,10.964H10.964C4.909-396,0-400.908,0-406.964v-111.072
			C0-524.092,4.909-529,10.964-529h111.072c6.055,0,10.964,4.908,10.964,10.964V-406.964z"/>
		<path fill="#F7F0E4" d="M266-274.964c0,6.056-4.909,10.964-10.964,10.964H143.964c-6.055,0-10.964-4.908-10.964-10.964v-111.072
			c0-6.056,4.909-10.964,10.964-10.964h111.072c6.055,0,10.964,4.908,10.964,10.964V-274.964z"/>
		<path fill="#F7F0E4" d="M399-406.964c0,6.056-4.909,10.964-10.964,10.964H276.964c-6.055,0-10.964-4.908-10.964-10.964v-111.072
			c0-6.056,4.909-10.964,10.964-10.964h111.071c6.055,0,10.964,4.908,10.964,10.964V-406.964z"/>
		<path fill="#F7F0E4" d="M133-143.964c0,6.056-4.909,10.964-10.964,10.964H10.964C4.909-133,0-137.908,0-143.964v-111.072
			C0-261.092,4.909-266,10.964-266h111.072c6.055,0,10.964,4.908,10.964,10.964V-143.964z"/>
		<path fill="#F7F0E4" d="M266-11.964C266-5.908,261.091-1,255.036-1H143.964C137.909-1,133-5.908,133-11.964v-111.072
			c0-6.056,4.909-10.964,10.964-10.964h111.072c6.055,0,10.964,4.908,10.964,10.964V-11.964z"/>
		<path fill="#F7F0E4" d="M399-143.966c0,6.057-4.909,10.966-10.964,10.966H276.964c-6.055,0-10.964-4.909-10.964-10.966v-111.068
			c0-6.057,4.909-10.966,10.964-10.966h111.071c6.055,0,10.964,4.909,10.964,10.966V-143.966z"/>
		<path fill="#F7F0E4" d="M531-274.964c0,6.056-4.909,10.964-10.964,10.964H408.964c-6.055,0-10.964-4.908-10.964-10.964v-111.072
			c0-6.056,4.909-10.964,10.964-10.964h111.072c6.055,0,10.964,4.908,10.964,10.964V-274.964z"/>
		<path fill="#F7F0E4" d="M531-11.965C531-5.909,526.091-1,520.036-1H408.964C402.909-1,398-5.909,398-11.965v-111.07
			c0-6.056,4.909-10.965,10.964-10.965h111.072c6.055,0,10.964,4.909,10.964,10.965V-11.965z"/>
	</g>
</pattern>
<g id="Layer_2">
	<rect y="0.03" fill="url(#New_Pattern_Swatch_6)" width="1210" height="906"/>
	<linearGradient id="SVGID_1_" gradientUnits="userSpaceOnUse" x1="604.9995" y1="0.0298" x2="604.9995" y2="909.8173">
		<stop  offset="0" style="stop-color:#FFFFFF;stop-opacity:0"/>
		<stop  offset="1" style="stop-color:#801A1E;stop-opacity:0.3"/>
	</linearGradient>
	<rect y="0.03" fill="url(#SVGID_1_)" width="1210" height="906"/>
	<rect x="-865" y="517.03" fill="#D13F34" width="531" height="529"/>
	<path fill="#F7F0E4" d="M-732,639.066c0,6.056-4.909,10.964-10.964,10.964h-111.072c-6.055,0-10.964-4.908-10.964-10.964V527.994
		c0-6.056,4.909-10.964,10.964-10.964h111.072c6.055,0,10.964,4.908,10.964,10.964V639.066z"/>
	<path fill="#F7F0E4" d="M-599,771.066c0,6.056-4.909,10.964-10.964,10.964h-111.072c-6.055,0-10.964-4.908-10.964-10.964V659.994
		c0-6.056,4.909-10.964,10.964-10.964h111.072c6.055,0,10.964,4.908,10.964,10.964V771.066z"/>
	<path fill="#F7F0E4" d="M-466,639.066c0,6.056-4.909,10.964-10.964,10.964h-111.071c-6.055,0-10.964-4.908-10.964-10.964V527.994
		c0-6.056,4.909-10.964,10.964-10.964h111.071c6.055,0,10.964,4.908,10.964,10.964V639.066z"/>
	<path fill="#F7F0E4" d="M-732,902.066c0,6.056-4.909,10.964-10.964,10.964h-111.072c-6.055,0-10.964-4.908-10.964-10.964V790.994
		c0-6.056,4.909-10.964,10.964-10.964h111.072c6.055,0,10.964,4.908,10.964,10.964V902.066z"/>
	<path fill="#F7F0E4" d="M-599,1034.066c0,6.056-4.909,10.964-10.964,10.964h-111.072c-6.055,0-10.964-4.908-10.964-10.964V922.994
		c0-6.056,4.909-10.964,10.964-10.964h111.072c6.055,0,10.964,4.908,10.964,10.964V1034.066z"/>
	<path fill="#F7F0E4" d="M-466,902.064c0,6.057-4.909,10.966-10.964,10.966h-111.071c-6.055,0-10.964-4.909-10.964-10.966V790.996
		c0-6.057,4.909-10.966,10.964-10.966h111.071c6.055,0,10.964,4.909,10.964,10.966V902.064z"/>
	<path fill="#F7F0E4" d="M-334,771.066c0,6.056-4.909,10.964-10.964,10.964h-111.072c-6.055,0-10.964-4.908-10.964-10.964V659.994
		c0-6.056,4.909-10.964,10.964-10.964h111.072c6.055,0,10.964,4.908,10.964,10.964V771.066z"/>
	<path fill="#F7F0E4" d="M-334,1034.065c0,6.056-4.909,10.965-10.964,10.965h-111.072c-6.055,0-10.964-4.909-10.964-10.965v-111.07
		c0-6.056,4.909-10.965,10.964-10.965h111.072c6.055,0,10.964,4.909,10.964,10.965V1034.065z"/>
	<polygon fill="#FFD7D7" points="-103.225,207.03 -315,207.03 -318.775,-4.97 -130.168,-4.97 	"/>
	<g>
		<polygon fill="#705C3A" points="-297.824,-28.408 -271.9,407.022 -571.566,349.073 -592.303,36.274 		"/>
		<polygon fill="#846B42" points="-580.422,349.093 -458.856,347.841 -90.525,405.064 -270.995,406.923 		"/>
		<polygon fill="#846B42" points="-599.051,36.189 -477.486,34.937 -116.444,-30.265 -295.668,-28.545 		"/>
		<polygon fill="#9B834C" points="-476.798,34.93 -458.168,347.833 -580.725,349.096 -599.354,36.192 		"/>
		<polygon fill="#BFA35C" points="-597.035,34.758 -578.101,352.792 -963.646,339.027 -980.533,55.403 		"/>
		<polygon fill="#BFA35C" points="-588.202,223.518 -587.735,231.338 -281.988,237.578 -282.454,229.757 		"/>
		<polygon fill="#BFA35C" points="-591.895,161.475 -592.361,153.654 -287.731,141.125 -287.265,148.946 		"/>
		<polygon fill="#BFA35C" points="-584.383,287.646 -583.917,295.466 -276.711,326.21 -277.177,318.39 		"/>
		<polygon fill="#BFA35C" points="-595.713,97.347 -596.179,89.526 -293.008,52.493 -292.542,60.313 		"/>
		<polygon fill="#93E849" points="-980.533,55.403 -963.677,338.505 -999.661,339.919 -1016.64,54.732 		"/>
		<polygon fill="#93E849" points="-577.725,352.266 -564.354,366.214 -975.319,351.146 -963.531,338.504 		"/>
		<polygon fill="#93E849" points="-596.629,34.753 -584.934,20.548 -993.602,44.062 -980.355,55.923 		"/>
		<polygon fill="#846B42" points="-584.054,288.112 -462.487,286.859 -95.823,316.091 -276.292,317.951 		"/>
		<polygon fill="#846B42" points="-594.167,97.158 -472.602,95.905 -109.926,58.158 -290.394,60.017 		"/>
		<polygon fill="#846B42" points="-587.922,223.132 -466.355,221.879 -101.061,228.118 -281.529,229.978 		"/>
		<polygon fill="#846B42" points="-591.612,161.151 -470.045,159.898 -105.881,147.143 -286.351,149.003 		"/>
		<polygon fill="#FDFFE1" points="-701.399,99.263 -690.329,285.206 -906.604,287.434 -917.675,101.491 		"/>
		<g>
			<g>
				<path fill="#629630" d="M-762.155,262.21c-23.468,0.211-46.93-0.657-70.398-0.446c-0.235,0.7-0.47,1.399-0.705,2.099
					c14.174-3.135,31.433-5.542,42.944-15.203c0.688-0.577,0.622-1.248-0.362-1.352c-20.592-2.172-41.803-2.333-61.959-7.458
					c-0.757,0.704-1.513,1.409-2.27,2.113c41.719-6.567,84.245-5.27,125.966-11.837c2.065-0.325,4.021-2.692,0.752-2.178
					c-41.719,6.566-84.245,5.27-125.966,11.837c-0.417,0.066-4.097,1.649-2.27,2.113c20.458,5.203,41.897,5.445,62.796,7.65
					c-0.121-0.451-0.242-0.901-0.362-1.352c-10.559,8.861-26.744,10.871-39.781,13.754c-1.401,0.31-3.249,2.122-0.705,2.099
					c23.468-0.211,46.93,0.657,70.398,0.446C-762.576,264.482-759.009,262.182-762.155,262.21L-762.155,262.21z"/>
			</g>
		</g>
		<g>
			<g>
				<path fill="#629630" d="M-788.679,217.586c-5.771,1.68-15.666,3.418-15.465,11.234c0.024,0.947,0.679,1.286,1.539,1.438
					c8.438,1.489,18.087,3.506,26.632,1.558c3.606-0.822,6.864-3.508,4.674-7.28c-1.99-3.428-6.327-5.694-9.775-7.311
					c-3.826-1.794-8.39-3.364-12.676-2.758c-2.411,0.341-4.932,1.465-5.961,3.822c-1.197,2.742-0.042,6.004,1.078,8.562
					c0.878,2.004,5.515,0.636,4.687-1.256c-0.882-2.013-1.833-4.344-1.382-6.581c0.034-0.168,0.123-0.398,0.304-0.726
					c-0.048,0.087,0.467-0.467,0.158-0.209c0.25-0.208,0.547-0.314,0.854-0.357c3.288-0.465,7.846,1.302,11.239,3.086
					c2.661,1.399,6.96,3.875,7.536,6.755c0.036,0.183-0.208,0.733-0.067,0.553c-0.148,0.19-0.325,0.313-1.002,0.516
					c-2.623,0.781-6.014,0.593-8.926,0.417c-5.273-0.318-10.517-1.147-15.713-2.064c0.513,0.479,1.026,0.958,1.539,1.438
					c-0.148-5.773,7.245-6.527,11.548-7.779C-785.008,219.813-785.808,216.75-788.679,217.586L-788.679,217.586z"/>
			</g>
		</g>
		<g>
			<g>
				<path fill="#629630" d="M-817.386,210.936c12.102-1.647,24.213-3.255,36.293-5.058c1.195-0.178,4.332-2.117,1.436-1.864
					c-14.577,1.274-29.832,0.863-44.237-1.832c-0.188,0.419-0.375,0.839-0.563,1.259c8.013-4.175,18.041-5.075,26.857-6.343
					c8.064-1.159,16.19-1.841,24.25-3.011c1.915-0.278,4.154-2.269,0.855-1.79c-8.892,1.291-17.853,2.062-26.745,3.375
					c-9.268,1.369-19.514,2.713-27.933,7.099c-0.331,0.173-1.659,1.054-0.563,1.259c15.022,2.81,30.857,3.252,46.063,1.922
					c0.479-0.621,0.957-1.243,1.436-1.864c-12.08,1.802-24.191,3.41-36.293,5.058C-818.452,209.408-820.686,211.385-817.386,210.936
					L-817.386,210.936z"/>
			</g>
		</g>
		<g>
			<g>
				<path fill="#629630" d="M-796.455,183.464c-1.141-6.424-11.046-7.17-12.09-13.928c-0.09-0.581-1.614-0.288-1.91-0.245
					c-3.096,0.453-22.909,2.556-21.304,9.118c0.607,2.482,5.018,3.488,7.016,4.031c5.321,1.446,11.018,1.548,16.489,1.409
					c10.38-0.264,24.423-1.797,32.074-9.709c6.339-6.555,0.769-14.842-5.205-19.11c-1.073-0.767-5.099,1.111-4.415,1.6
					c4.5,3.215,8.935,8.226,7.448,14.171c-2.375,9.499-17.509,10.415-25.193,11.012c-6.867,0.534-15.601,0.596-21.808-2.909
					c-7.746-4.374,12.273-7.61,14.032-7.868c-0.637-0.082-1.273-0.163-1.91-0.245c1.048,6.78,10.969,7.613,12.09,13.928
					C-800.966,185.707-796.246,184.64-796.455,183.464L-796.455,183.464z"/>
			</g>
		</g>
		<g>
			<g>
				<path fill="#629630" d="M-826.107,157.565c7.874-1.04,15.49-3.938,22.646-7.288c6.517-3.05,13.983-6.965,18.123-13.092
					c1.215-1.797-3.507-1.369-4.364-0.101c-3.574,5.289-10.029,8.547-15.611,11.262c-6.3,3.063-13.177,5.699-20.154,6.62
					C-827.731,155.265-829.354,157.993-826.107,157.565L-826.107,157.565z"/>
			</g>
		</g>
		<g>
			<g>
				<path fill="#629630" d="M-846.645,141.879c33.552-0.387,67.61-3.266,100.879,2.447c2.399,0.412,4.72-3.01,1.584-3.549
					c-33.661-5.779-68.145-2.878-102.089-2.487C-849.002,138.322-849.822,141.916-846.645,141.879L-846.645,141.879z"/>
			</g>
		</g>
		<polygon opacity="0.48" fill="#CEEFEC" points="-919.14,266.622 -858.034,295.66 -894.825,309.057 -955.928,280.019 		"/>
		<polygon opacity="0.48" fill="#CEEFEC" points="-712.91,86.602 -651.805,115.64 -688.594,129.037 -749.699,99.999 		"/>
		<polygon opacity="0.48" fill="#CEEFEC" points="-963.314,105.703 -890.72,81.675 -860.279,97.591 -932.872,121.62 		"/>
		<polygon opacity="0.48" fill="#CEEFEC" points="-741.593,291.226 -668.997,267.198 -638.556,283.114 -711.151,307.142 		"/>
		<polygon fill="#BFA35C" points="-117.566,-29.791 -91.676,405.076 -271.904,406.933 -297.796,-27.934 		"/>
		<polygon fill="#FDFFE1" points="-122.513,331.371 -118.466,399.35 -224.201,400.44 -228.249,332.46 		"/>
		<polygon fill="#FDFFE1" points="-146.105,-24.495 -142.236,40.485 -247.972,41.574 -251.841,-23.406 		"/>
		<polygon fill="#FDFFE1" points="-127.513,247.397 -123.585,313.376 -229.319,314.466 -233.248,248.486 		"/>
		<polygon fill="#FDFFE1" points="-140.689,66.477 -136.344,139.455 -242.079,140.544 -246.424,67.566 		"/>
		<polygon fill="#FDFFE1" points="-135.571,152.451 -131.106,227.428 -236.842,228.517 -241.305,153.54 		"/>
		<polygon opacity="0.48" fill="#CEEFEC" points="-253.198,30.595 -220.804,45.988 -240.308,53.09 -272.699,37.696 		"/>
		<polygon opacity="0.48" fill="#CEEFEC" points="-151.772,-35.139 -119.38,-19.746 -138.881,-12.644 -171.276,-28.038 		"/>
		<polygon opacity="0.48" fill="#CEEFEC" points="-146.401,55.057 -114.009,70.451 -133.511,77.553 -165.905,62.159 		"/>
		<polygon opacity="0.48" fill="#CEEFEC" points="-136.02,145.592 -117.629,154.333 -128.7,158.365 -147.092,149.624 		"/>
		<polygon opacity="0.48" fill="#CEEFEC" points="-135.599,236.492 -103.208,251.887 -122.709,258.988 -155.103,243.594 		"/>
		<polygon opacity="0.48" fill="#CEEFEC" points="-262.958,254.372 -223.311,236.179 -204.107,243.422 -243.758,261.615 		"/>
		<polygon opacity="0.48" fill="#CEEFEC" points="-156.984,318.038 -117.336,299.845 -107.735,303.466 -147.386,321.659 		"/>
		<polygon opacity="0.48" fill="#CEEFEC" points="-178.325,43.851 -138.677,25.659 -129.076,29.28 -168.727,47.472 		"/>
		<polygon opacity="0.48" fill="#CEEFEC" points="-241.697,335.999 -212.855,322.766 -198.889,328.035 -227.731,341.268 		"/>
		<polygon opacity="0.48" fill="#CEEFEC" points="-141.441,398.09 -112.599,384.857 -98.631,390.125 -127.472,403.359 		"/>
		<polygon opacity="0.48" fill="#CEEFEC" points="-156.386,231.305 -127.545,218.072 -113.579,223.34 -142.418,236.573 		"/>
		<polygon opacity="0.48" fill="#CEEFEC" points="-261.116,157.261 -232.277,144.028 -218.309,149.296 -247.15,162.529 		"/>
		<polygon opacity="0.48" fill="#CEEFEC" points="-161.788,140.586 -132.946,127.354 -118.98,132.622 -147.819,145.855 		"/>
		<polygon opacity="0.48" fill="#CEEFEC" points="-237.242,298.577 -204.848,313.971 -224.352,321.073 -256.743,305.679 		"/>
		<polygon opacity="0.48" fill="#CEEFEC" points="-233.405,384.094 -201.011,399.488 -220.514,406.59 -252.906,391.196 		"/>
		<polygon opacity="0.48" fill="#CEEFEC" points="-238.557,129.042 -206.164,144.437 -225.669,151.539 -258.059,136.145 		"/>
		<polygon opacity="0.48" fill="#CEEFEC" points="-240.798,217.752 -208.407,233.146 -227.911,240.248 -260.302,224.854 		"/>
		<polygon opacity="0.48" fill="#CEEFEC" points="-110.785,339.872 -156.785,332.636 -147.617,322.549 -101.617,329.787 		"/>
		<polygon opacity="0.48" fill="#CEEFEC" points="-222.688,-26.091 -257.93,-11.822 -276.008,-19.548 -240.767,-33.818 		"/>
		<polygon opacity="0.48" fill="#CEEFEC" points="-217.318,64.105 -252.56,78.375 -270.638,70.648 -235.397,56.378 		"/>
		<g>
			<g>
				<path fill="#629630" d="M-197.197,293.442c-3.003-0.772-7.018-1.808-8.264-5.024c-1.06-2.734,2.35-4.929,4.302-5.891
					c10.889-5.368,25.803,0.484,35.112,6.364c0.874,0.552,4.234-0.044,4.519-1.211c1.587-6.515-2.663-11.613-5.721-16.975
					c-0.692-1.213-5.108,0.516-4.687,1.256c2.919,5.118,7.306,10.246,5.779,16.518c1.506-0.404,3.012-0.807,4.519-1.211
					c-12.038-7.603-27.125-11.256-40.831-6.052c-2.823,1.072-7.441,3.379-7.774,6.875c-0.439,4.608,5.823,6.347,9.21,7.218
					C-199.915,295.596-195.776,293.807-197.197,293.442L-197.197,293.442z"/>
			</g>
		</g>
		<g>
			<g>
				<path fill="#629630" d="M-212.79,264.107c-2.695,12.3,18.662,8.322,24.424,6.735c0.606-0.167,2.86-1.282,1.822-2.238
					c-1.217-1.12-5.368-4.921-2.9-6.727c2.159-1.579,6.224-1.001,8.652-0.63c6.808,1.04,14.67,5.551,9.178,12.941
					c-1.343,1.808,3.413,1.54,4.396,0.218c7.361-9.906-4.829-15.304-13.229-16.198c-4.045-0.43-9.46-0.188-12.698,2.639
					c-3.622,3.162-0.449,7.155,2.267,9.654c0.607-0.746,1.215-1.492,1.822-2.238c-4.393,1.21-21.118,4.849-19.03-4.681
					C-207.666,261.656-212.412,262.382-212.79,264.107L-212.79,264.107z"/>
			</g>
		</g>
		<g>
			<g>
				<path fill="#629630" d="M-213.956,202.309c14.874-4.245,30.48-6.387,45.819-8.173c1.18-0.137,5.105-2.213,2.038-1.855
					c-16.16,1.882-32.567,4.141-48.236,8.614C-217.042,201.666-216.677,203.085-213.956,202.309L-213.956,202.309z"/>
			</g>
		</g>
		<g>
			<g>
				<path fill="#629630" d="M-217.689,181.272c-4.104,11.637,15.508,12.374,22.206,11.135c3.558-0.658,22.952-8.092,18.173-14.447
					c-3.857-5.129-16.616-2.273-21.596-1.235c-8.159,1.7-18.417,4.993-23.062,12.5c-0.321,0.519,3.907,0.311,4.618-0.839
					c3.644-5.888,11.136-8.532,17.56-9.977c5.001-1.125,12.262-2.452,17.018,0.217c6.497,3.646-9.827,11.553-11.195,11.943
					c-5.936,1.695-22.571-0.302-19.104-10.136C-212.775,179.595-217.274,180.095-217.689,181.272L-217.689,181.272z"/>
			</g>
		</g>
		<g>
			<g>
				<path fill="#629630" d="M-175.319,122.302c0.428-0.169,1.259-0.34,1.631,0.049c0.175,0.183,0.103,0.2,0.075,0.247
					c-0.089,0.149-0.605,0.343-0.068,0.12c-0.139,0.058,0.562-0.036,0.658-0.039c-0.481-0.363-0.963-0.725-1.445-1.088
					c-0.02,1.907-2.061,2.991-2.081,4.965c-0.021,1.994,3.918,0.966,4.534-0.208c0.708-1.351,1.86-3.689-0.479-4.092
					c-2.519-0.434-5.231,1.1-7.456,2.072c-0.586,0.256-1.977,1.138-1.234,1.938c0.72,0.776,2.286,0.439,3.11,0.079
					c1.184-0.518,2.519-1.151,3.566-1.446c-0.072,0.011-0.145,0.021-0.218,0.032c0.514-0.052,0.244-0.103-0.81-0.15
					c-0.119-0.042-0.219-0.135-0.216-0.253c-0.015,0.583-0.379,1.179-0.64,1.676c1.511-0.07,3.023-0.139,4.534-0.208
					c0.02-1.907,2.06-2.991,2.081-4.965c0.008-0.788-0.713-1.11-1.445-1.088c-2.43,0.075-5.966,0.53-7.048,3.109
					c-0.277,0.659,0.261,1.321,0.821,1.575c1.26,0.572,2.789,0.174,4.006-0.306c0.6-0.237,1.966-1.15,1.234-1.938
					C-172.945,121.588-174.475,121.968-175.319,122.302L-175.319,122.302z"/>
			</g>
		</g>
		<g>
			<g>
				<path fill="#629630" d="M-225.182,93.803c4.945,5.48,3.759,13.813,8.3,19.686c0.98,1.268,6.227-0.032,7.689-0.181
					c3.789-0.388,7.541-1.087,11.264-1.875c0.389-0.082,2.857-1.057,1.938-1.806c-4.73-3.855-6.571-10.535,1.531-10.551
					c8.72-0.017,13.281,7.982,13.17,15.793c-0.016,1.101,4.664,0.34,4.687-1.256c0.149-10.567-7.797-18-18.409-16.675
					c-3.366,0.42-7.349,1.602-9.344,4.573c-2.491,3.71,1.267,7.618,3.981,9.83c0.646-0.602,1.292-1.204,1.938-1.806
					c-3.308,0.7-6.645,1.206-10,1.609c-2.595,0.312-3.98,1.037-5.524-1.474c-0.723-1.175-1.131-2.553-1.556-3.853
					c-1.577-4.831-1.726-9.789-5.281-13.729C-221.733,91.052-226.169,92.709-225.182,93.803L-225.182,93.803z"/>
			</g>
		</g>
		<g>
			<g>
				<path fill="#629630" d="M-177.847,14.856c-1.487,0.031-2.969,0.155-4.455,0.204c-1.089,0.036-1.272-0.468-1.382-1.497
					c-1.093,0.622-2.186,1.244-3.279,1.866c1.583-0.017,3.167-0.033,4.75-0.049c0.677-0.007,3.741-0.602,3.279-1.866
					c-0.688-1.885-4.135-0.017-5.107,0.674c-0.818,0.583-1.576,1.259-2.353,1.894c-0.426,0.349-0.859,0.689-1.298,1.023
					c-0.148,0.115-0.301,0.225-0.457,0.328c-1.018,0.559-0.242,0.595,2.327,0.107c-0.305,0.411-0.609,0.821-0.914,1.232
					c0.82-0.486,2.019-1.208,1.895-2.346c-0.119-1.09-0.951-1.809-1.215-2.839c-1.266,0.609-2.532,1.217-3.798,1.826
					c0.797,0.169,1.746,0.331,2.419,0.83c0.337,0.25,2.513-1.098,1.275-1.034c-1.016,0.052-2.038-0.075-3.045-0.191
					c-1.128-0.13-2.422,0.154-3.313,0.888c-0.713,0.587-0.577,1.395,0.404,1.508c2.604,0.301,7.185,0.994,9.151-1.388
					c1.567-1.898-2.993-2.798-3.983-3.009c-0.852-0.181-4.168,0.386-3.798,1.826c0.092,0.358,1.502,2.512,1.149,2.721
					c-0.41,0.243-1.023,0.665-0.914,1.232c0.402,2.09,4.229,0.447,5.218-0.155c1.045-0.636,1.997-1.434,2.942-2.206
					c0.414-0.338,0.826-0.68,1.241-1.017c0.963-0.782,1.306-0.521-0.608-0.177c-0.51-0.038-1.021-0.077-1.531-0.115
					c-0.125-0.119-0.249-0.238-0.374-0.356c1.093-0.622,2.186-1.244,3.279-1.866c-1.583,0.017-3.167,0.033-4.75,0.049
					c-0.931,0.01-3.425,0.509-3.279,1.866c0.426,3.96,5.979,2.569,8.651,2.513c1.048-0.022,2.432-0.355,3.104-1.242
					C-175.951,15.212-177.177,14.842-177.847,14.856L-177.847,14.856z"/>
			</g>
		</g>
		<g>
			<g>
				<path fill="#629630" d="M-157.931,201.936c-1.487,0.031-2.968,0.155-4.455,0.204c-1.088,0.036-1.27-0.468-1.38-1.497
					c-1.093,0.622-2.186,1.244-3.279,1.866c1.583-0.017,3.167-0.033,4.75-0.049c0.677-0.007,3.74-0.602,3.279-1.866
					c-0.688-1.885-4.135-0.017-5.107,0.674c-0.818,0.582-1.576,1.258-2.353,1.894c-0.427,0.349-0.86,0.689-1.298,1.023
					c-0.148,0.115-0.301,0.225-0.458,0.328c-1.018,0.559-0.242,0.594,2.327,0.107c-0.305,0.411-0.609,0.821-0.914,1.232
					c0.82-0.485,2.02-1.208,1.896-2.345c-0.119-1.091-0.951-1.809-1.216-2.839c-1.266,0.609-2.532,1.217-3.798,1.826
					c0.797,0.169,1.746,0.33,2.419,0.83c0.337,0.25,2.513-1.098,1.276-1.035c-1.016,0.052-2.038-0.074-3.044-0.191
					c-1.128-0.13-2.422,0.154-3.313,0.888c-0.713,0.587-0.577,1.395,0.404,1.508c2.603,0.301,7.184,0.994,9.149-1.388
					c1.566-1.899-2.992-2.798-3.983-3.009c-0.852-0.181-4.168,0.386-3.798,1.826c0.092,0.358,1.503,2.51,1.148,2.72
					c-0.41,0.243-1.023,0.666-0.914,1.232c0.403,2.09,4.229,0.447,5.219-0.155c1.045-0.636,1.998-1.434,2.942-2.206
					c0.415-0.338,0.826-0.679,1.242-1.016c0.965-0.783,1.304-0.52-0.607-0.177c-0.511-0.039-1.021-0.077-1.532-0.115
					c-0.125-0.119-0.249-0.238-0.374-0.356c1.093-0.622,2.186-1.244,3.279-1.866c-1.583,0.017-3.167,0.033-4.75,0.049
					c-0.931,0.01-3.425,0.509-3.279,1.866c0.425,3.96,5.977,2.569,8.649,2.513c1.048-0.022,2.432-0.355,3.104-1.242
					C-156.035,202.292-157.261,201.922-157.931,201.936L-157.931,201.936z"/>
			</g>
		</g>
		<g>
			<g>
				<path fill="#629630" d="M-154.818,296.329c-1.487,0.031-2.969,0.155-4.455,0.204c-1.089,0.036-1.27-0.468-1.38-1.497
					c-1.093,0.622-2.186,1.244-3.279,1.866c1.583-0.017,3.166-0.033,4.749-0.049c0.677-0.007,3.74-0.602,3.279-1.866
					c-0.688-1.885-4.135-0.017-5.107,0.674c-0.819,0.583-1.576,1.259-2.353,1.894c-0.427,0.349-0.859,0.689-1.298,1.023
					c-0.148,0.115-0.301,0.224-0.458,0.327c-1.018,0.559-0.243,0.595,2.327,0.107c-0.305,0.411-0.609,0.821-0.914,1.232
					c0.82-0.485,2.02-1.208,1.896-2.345c-0.12-1.091-0.952-1.809-1.217-2.838c-1.266,0.609-2.532,1.217-3.798,1.826
					c0.797,0.169,1.746,0.33,2.419,0.83c0.337,0.25,2.513-1.099,1.275-1.035c-1.016,0.052-2.038-0.075-3.045-0.191
					c-1.128-0.13-2.422,0.154-3.313,0.888c-0.713,0.587-0.577,1.395,0.404,1.508c2.604,0.301,7.184,0.995,9.151-1.388
					c1.567-1.898-2.993-2.798-3.983-3.009c-0.851-0.181-4.169,0.386-3.798,1.826c0.092,0.358,1.503,2.511,1.15,2.72
					c-0.41,0.243-1.023,0.666-0.914,1.232c0.402,2.09,4.229,0.447,5.218-0.155c1.045-0.636,1.998-1.434,2.942-2.206
					c0.414-0.339,0.826-0.68,1.241-1.017c0.964-0.782,1.305-0.52-0.608-0.177c-0.511-0.038-1.021-0.077-1.532-0.115
					c-0.125-0.119-0.249-0.238-0.374-0.356c1.093-0.622,2.186-1.244,3.279-1.866c-1.583,0.017-3.166,0.033-4.749,0.049
					c-0.931,0.01-3.425,0.509-3.279,1.866c0.425,3.96,5.977,2.569,8.649,2.513c1.048-0.022,2.432-0.355,3.104-1.242
					C-152.922,296.685-154.148,296.315-154.818,296.329L-154.818,296.329z"/>
			</g>
		</g>
		<g>
			<g>
				<path fill="#629630" d="M-230.798,8.332c18.158-1.167,36.243-3.214,54.391-4.515c2.326-0.167,3.875-2.868,0.629-2.635
					c-18.147,1.301-36.232,3.347-54.391,4.515C-232.5,5.847-234.042,8.541-230.798,8.332L-230.798,8.332z"/>
			</g>
		</g>
		<g>
			<g>
				<path fill="#629630" d="M-201.613,390.221c20.613-2.298,41.595-1.901,62.035-5.655c1.845-0.339,4.174-2.299,0.881-1.694
					c-20.044,3.682-40.658,3.243-60.876,5.498C-200.754,388.501-204.683,390.563-201.613,390.221L-201.613,390.221z"/>
			</g>
		</g>
		<g>
			<g>
				<path fill="#629630" d="M-152.237,378.632c1.456,0.134,3.06,0.395,4.501,0.039c1.377-0.339,2.842-1.896,1.434-3.078
					c-0.275-0.231-0.688-0.364-1.035-0.479c-0.758-0.25-1.541-0.429-2.317-0.612c-0.516-0.121-1.033-0.239-1.55-0.355
					c-0.109-0.024-0.217-0.048-0.326-0.073c-0.301-0.068,0.69,0.197,0.385,0.087c0.264,0.183,0.528,0.365,0.793,0.548l0,0
					c-0.784,0.917-1.568,1.834-2.352,2.751c-0.885,0.042-0.685-0.03-0.35,0.034c0.253,0.049,0.506,0.099,0.758,0.148
					c1.087,0.212,2.565-0.417,3.051-1.436c0.528-1.109-0.475-1.79-1.43-1.976c-0.546-0.106-1.053-0.233-1.615-0.207
					c-0.794,0.037-1.649,0.417-2.169,1.024c-0.355,0.416-0.67,1.261-0.183,1.727c0.67,0.64,1.5,0.709,2.362,0.907
					c-0.946-0.216-0.212-0.048,0.02,0.006c0.184,0.044,0.368,0.088,0.552,0.133c0.378,0.093,0.756,0.189,1.131,0.294
					c0.279,0.078,0.558,0.16,0.828,0.265c0.436,0.168-0.465-0.276-0.199-0.106c-0.209-0.134-0.354-0.358-0.473-0.659
					c-0.427-1.082,1.076-1.947,1.822-2.163c-0.291,0.084,0.825-0.124,0.498-0.085c-0.07,0.008-0.141,0.011-0.211,0.013
					c-0.078,0.003-0.156,0.003-0.234,0.003c-0.419-0.001,0.749,0.023,0.182,0.001c-0.752-0.028-1.504-0.096-2.253-0.166
					c-1.125-0.104-2.53,0.343-3.051,1.436C-154.164,377.698-153.229,378.541-152.237,378.632L-152.237,378.632z"/>
			</g>
		</g>
		<g>
			<g>
				<path fill="#629630" d="M-199.06,367.661c7.287,3.302,16.197,2.563,23.906,1.543c7.474-0.988,16.312-2.752,22.294-7.67
					c0.746-0.613,0.522-1.52-0.447-1.669c-13.762-2.117-32.497-2.247-43.277,8.219c-1.97,1.913,2.652,1.857,3.761,0.781
					c9.058-8.794,25.13-8.215,36.65-6.443c-0.149-0.556-0.298-1.112-0.447-1.669c-4.722,3.882-12.058,4.974-17.897,5.842
					c-6.61,0.983-14.556,1.627-20.815-1.209C-196.729,364.752-201.021,366.772-199.06,367.661L-199.06,367.661z"/>
			</g>
		</g>
		<g>
			<g>
				<path fill="#629630" d="M-194.95,356.003c5.572,4.514,14.301,2.861,20.693,1.494c7.729-1.654,16.114-4.506,22.636-9.085
					c1.325-0.93,0.849-2.75-0.773-2.886c-13.122-1.101-34.967-1.48-42.83,11.754c-1.366,2.298,3.41,2.435,4.498,0.603
					c2.816-4.74,8.847-6.538,13.864-7.751c7.416-1.794,15.327-1.719,22.875-1.086c-0.258-0.962-0.516-1.924-0.773-2.886
					c-4.931,3.461-11.067,5.452-16.798,7.091c-5.63,1.61-14.701,4.109-19.797-0.02C-193.043,351.865-197.092,354.268-194.95,356.003
					L-194.95,356.003z"/>
			</g>
		</g>
	</g>
	<polygon opacity="0.48" fill="#874242" points="647,822.03 236,822.03 202,784.582 202,181.03 606.202,181.03 647,225.895 	"/>
	<polygon opacity="0.48" fill="#874242" points="1139,542.03 710.434,542.03 675,513.834 675,65.03 1096.255,65.03 1139,98.797 	"/>
	<ellipse opacity="0.48" fill="#874242" cx="749.356" cy="603.92" rx="37.239" ry="24.846"/>
	<ellipse opacity="0.48" fill="#874242" cx="781.83" cy="684.401" rx="38.972" ry="33.372"/>
	<path opacity="0.48" fill="#874242" d="M1178.222,803.826c-15.416,54.54-66.953,87.72-115.11,74.107
		c-48.157-13.611-74.702-68.861-59.287-123.401c15.416-54.537,66.955-87.716,115.112-74.104S1193.637,749.289,1178.222,803.826z"/>
	<ellipse opacity="0.48" fill="#874242" cx="718.673" cy="675.227" rx="30.331" ry="20.341"/>
	<ellipse opacity="0.48" fill="#874242" cx="425.656" cy="46.972" rx="28.222" ry="18.83"/>
	<ellipse opacity="0.48" fill="#874242" cx="450.266" cy="107.965" rx="29.535" ry="25.291"/>
	<rect x="194" y="172.03" fill="#9B834C" width="411" height="610"/>
	<ellipse opacity="0.48" fill="#6D5037" cx="280.368" cy="547.763" rx="36.789" ry="33.056"/>
	<ellipse opacity="0.48" fill="#6D5037" cx="379.368" cy="554.738" rx="36.789" ry="34.081"/>
	<ellipse opacity="0.48" fill="#6D5037" cx="353.376" cy="342.464" rx="28.797" ry="24.513"/>
	<ellipse opacity="0.48" fill="#6D5037" cx="515.306" cy="225.687" rx="19.727" ry="18.29"/>
	<ellipse opacity="0.48" fill="#6D5037" cx="468.306" cy="256.687" rx="19.727" ry="18.29"/>
	<ellipse opacity="0.48" fill="#6D5037" cx="263.376" cy="354.094" rx="28.797" ry="22.883"/>
	<ellipse opacity="0.48" fill="#6D5037" cx="478.368" cy="545.238" rx="36.789" ry="33.581"/>
	<ellipse opacity="0.48" fill="#6D5037" cx="440.229" cy="428.117" rx="15.65" ry="12.693"/>
	<ellipse opacity="0.48" fill="#6D5037" cx="399.229" cy="453.259" rx="15.65" ry="15.55"/>
	<ellipse opacity="0.48" fill="#6D5037" cx="365.229" cy="441.259" rx="15.65" ry="15.55"/>
	<rect x="198" y="177.03" opacity="0.48" fill="#6D5037" width="402" height="12"/>
	<rect x="199" y="287.03" opacity="0.48" fill="#6D5037" width="402" height="12"/>
	<rect x="200" y="398.03" opacity="0.48" fill="#6D5037" width="402" height="12"/>
	<rect x="201" y="489.03" opacity="0.48" fill="#6D5037" width="402" height="12"/>
	<rect x="198" y="609.03" opacity="0.48" fill="#6D5037" width="402" height="12"/>
	<rect x="198" y="177.03" opacity="0.48" fill="#6D5037" width="17" height="602"/>
	<path opacity="0.48" fill="#874242" d="M164,260.929c0,8.941-11.484,16.101-26.268,16.101H65.459
		C50.676,277.03,39,269.871,39,260.929v-43.71c0-8.941,11.676-16.189,26.459-16.189h72.273c14.784,0,26.268,7.248,26.268,16.189
		V260.929z"/>
	<path opacity="0.48" fill="#874242" d="M164,371.595c0,8.742-11.484,15.435-26.268,15.435H65.459
		C50.676,387.03,39,380.337,39,371.595v-42.737c0-8.742,11.676-15.829,26.459-15.829h72.273c14.784,0,26.268,7.086,26.268,15.829
		V371.595z"/>
	<path opacity="0.48" fill="#874242" d="M164,470.136c0,8.226-11.484,14.894-26.268,14.894H65.459
		C50.676,485.03,39,478.362,39,470.136v-40.213c0-8.226,11.676-14.894,26.459-14.894h72.273c14.784,0,26.268,6.668,26.268,14.894
		V470.136z"/>
	<path opacity="0.48" fill="#874242" d="M164,585.256c0,9.289-11.484,16.773-26.268,16.773H65.459
		C50.676,602.03,39,594.545,39,585.256v-45.408c0-9.289,11.676-16.818,26.459-16.818h72.273c14.784,0,26.268,7.529,26.268,16.818
		V585.256z"/>
	<path opacity="0.48" fill="#874242" d="M164,725.03c0,11.046-11.484,20-26.268,20H65.459c-14.784,0-26.459-8.954-26.459-20v-54
		c0-11.046,11.676-20,26.459-20h72.273c14.784,0,26.268,8.954,26.268,20V725.03z"/>
</g>
<g id="Layer_1">
	<g>
		<g>
			<path fill="#0092CF" d="M-502.975,111.802l-160.088-8.968l-14.934,266.516l160.087,8.969
				c17.205,0.965,30.334-12.257,31.257-28.747l11.475-204.769C-474.255,128.306-485.771,112.768-502.975,111.802z"/>
			<path fill="#6EBE45" d="M-698.74,100.834c-17.2-0.962-36.906,12.829-37.834,29.324l-11.47,204.769
				c-0.927,16.49,17.17,31.462,34.375,32.427l35.673,1.997l14.934-266.516L-698.74,100.834z"/>
		</g>
		<path fill="#F68F1E" d="M-516.631,126.463l-160.217-8.979l-35.558-1.99c-17.194-0.965-34.209,10.39-35.131,26.888l-11.475,204.769
			c-0.923,16.49,14.763,28.771,31.963,29.734l35.558,1.992l160.218,8.977c9.52,0.533,33.467-22.707,33.652-26.059l11.475-204.768
			C-485.224,140.53-499.431,127.426-516.631,126.463z"/>
		<path fill="#0092CF" d="M-538.823,140.643l-156.713-8.78l-14.643,261.39l156.713,8.783c17.195,0.963,33.468-7.835,34.39-24.326
			l11.475-204.768C-506.68,156.446-521.624,141.607-538.823,140.643z"/>
		<path fill="#6EBE45" d="M-729.485,129.96l26.78-20.807l-18.413-0.081l-33.006,25.995c-8.347,4.998-14.322,13.433-14.874,23.228
			l-11.47,204.769c-0.927,16.49,14.026,27.037,31.231,28.002l39.057,2.186l14.643-261.39L-729.485,129.96z"/>
		<g>
			<path fill-rule="evenodd" clip-rule="evenodd" fill="#E20177" d="M-593.776,177.744c-0.606,10.806-9.851,19.07-20.664,18.463
				c-10.788-0.604-19.06-9.848-18.453-20.654c0.606-10.798,9.855-19.065,20.648-18.461
				C-601.437,157.697-593.17,166.949-593.776,177.744z"/>
			<path fill-rule="evenodd" clip-rule="evenodd" fill="#E20177" d="M-599.862,240.729l31.331-27.196
				c4.422-3.84,4.337-11.159,0.206-15.919c-4.131-4.755-11.364-5.857-15.781-2.022l-31.823,27.629l-28.499-31.053
				c-3.95-4.306-11.264-4.033-15.911,0.228c-4.643,4.266-5.55,11.525-1.594,15.841l28.053,30.562l-31.321,27.198
				c-4.422,3.83-4.347,11.156-0.221,15.912c4.131,4.762,11.369,5.865,15.781,2.029l31.838-27.627l28.489,31.051
				c3.955,4.309,11.269,4.036,15.911-0.228c4.646-4.259,5.549-11.524,1.594-15.834L-599.862,240.729z"/>
		</g>
	</g>
	<path fill="#FFF9C5" d="M1124,507.5c0,12.995-10.534,23.529-23.529,23.529H693.529C680.534,531.03,670,520.496,670,507.5V78.559
		c0-12.995,10.534-23.529,23.529-23.529h406.941c12.995,0,23.529,10.534,23.529,23.529V507.5z"/>
	<line fill="none" stroke="#085AFF" stroke-miterlimit="10" x1="670" y1="135.53" x2="1124" y2="135.53"/>
	<line fill="none" stroke="#085AFF" stroke-miterlimit="10" x1="670" y1="382.53" x2="1125" y2="382.53"/>
	<line fill="none" stroke="#085AFF" stroke-miterlimit="10" x1="670" y1="295.53" x2="1125" y2="295.53"/>
	<g>
		<rect x="790.425" y="81.749" fill="none" width="178.154" height="52.434"/>
		<text transform="matrix(1 0 0 1 790.4248 110.9688)" fill="#085AFF" font-family="'Candara'" font-size="42.3525">Day #</text>
	</g>
	<g>
		<rect x="903.827" y="81.749" fill="none" width="89.077" height="52.434"/>
		<text transform="matrix(1 0 0 1 903.8271 109.6665)" fill="#085AFF" font-family="'BradleyHandITC'" font-size="42.3525">15</text>
	</g>
	<g>
		<rect x="897.646" y="172.416" fill="none" width="178.154" height="52.434"/>
		<text transform="matrix(1 0 0 1 897.6445 200.334)" fill="#085AFF" font-family="'BradleyHandITC'" font-size="42.3525">47.22</text>
	</g>
	<g>
		<rect x="896.163" y="224.85" fill="none" width="178.154" height="52.434"/>
		<text transform="matrix(1 0 0 1 896.1621 252.7676)" fill="#085AFF" font-family="'BradleyHandITC'" font-size="42.3525">55.22</text>
	</g>
	<g>
		<rect x="924.642" y="322.813" fill="none" width="178.154" height="52.434"/>
		<text transform="matrix(1 0 0 1 924.6406 350.731)" fill="#085AFF" font-family="'BradleyHandITC'" font-size="42.3525">8.00</text>
	</g>
	<rect x="737.647" y="224.85" fill="none" width="178.154" height="52.434"/>
	<text transform="matrix(1 0 0 1 737.6475 254.0703)" fill="#085AFF" font-family="'Candara'" font-size="42.3525">End $</text>
	<rect x="737.647" y="167.813" fill="none" width="178.154" height="52.434"/>
	<text transform="matrix(1 0 0 1 737.6475 197.0337)" fill="#085AFF" font-family="'Candara'" font-size="42.3525">Start $</text>
	<rect x="737.647" y="324.363" fill="none" width="178.154" height="52.434"/>
	<text transform="matrix(1 0 0 1 737.6475 353.584)" fill="#085AFF" font-family="'Candara'" font-size="42.3525">Profit</text>
	<rect x="737.647" y="410.424" fill="none" width="200.421" height="104.284"/>
	<text transform="matrix(1 0 0 1 737.6475 439.644)"><tspan x="0" y="0" fill="#085AFF" font-family="'Candara'" font-size="42.3525">Correct/</tspan><tspan x="0" y="50.823" fill="#085AFF" font-family="'Candara'" font-size="42.3525">Incorrect</tspan></text>
	<rect x="190" y="172.03" fill="#BFA35C" width="9" height="609"/>
	<rect x="599" y="172.03" fill="#BFA35C" width="9" height="609"/>
	<rect x="194" y="172.03" fill="#BFA35C" width="411" height="9"/>
	<rect x="194" y="771.03" fill="#BFA35C" width="411" height="10"/>
	<rect x="194" y="606.03" fill="#BFA35C" width="411" height="9"/>
	<rect x="194" y="488.03" fill="#BFA35C" width="411" height="7"/>
	<rect x="194" y="395.03" fill="#BFA35C" width="411" height="8"/>
	<rect x="194" y="284.03" fill="#BFA35C" width="411" height="7"/>
	<g>
		<g>
			<path fill="#F7F7F7" d="M716.097,637.993c-0.694,1.374-2.372,1.924-3.745,1.229l-28.99-14.66
				c-1.374-0.694-1.925-2.372-1.23-3.746l14.661-28.99c0.695-1.374,2.371-1.923,3.746-1.229l28.989,14.66
				c1.374,0.696,1.925,2.373,1.229,3.747L716.097,637.993z"/>
			<path fill="#EDE2F7" d="M730.634,605.61c-0.655,1.294-2.404,2.149-3.698,1.495l-27.104-13.707
				c-1.294-0.654-1.642-2.571-0.988-3.865l9.674-9.156c0.654-1.294,2.307-1.956,3.601-1.302l18.404,9.308
				c1.292,0.654,1.738,2.377,1.084,3.671L730.634,605.61z"/>
		</g>
		<g>
			<path fill="#F7F7F7" d="M675.988,717.235c-1.242,0.909-2.986,0.639-3.895-0.604l-19.181-26.22
				c-0.91-1.243-0.639-2.987,0.604-3.896l26.219-19.182c1.242-0.908,2.986-0.638,3.896,0.604l19.18,26.219
				c0.909,1.243,0.639,2.988-0.604,3.896L675.988,717.235z"/>
			<path fill="#EDE2F7" d="M703.638,694.975c-1.171,0.854-3.119,0.824-3.975-0.346l-17.933-24.514
				c-0.856-1.171-0.296-3.037,0.874-3.893l12.775-3.771c1.17-0.856,2.942-0.696,3.798,0.474l12.177,16.646
				c0.855,1.17,0.472,2.907-0.698,3.763L703.638,694.975z"/>
		</g>
		<g>
			<path fill="#F7F7F7" d="M777,724.086c0,2.178-1.766,3.943-3.943,3.943h-46.113c-2.178,0-3.943-1.766-3.943-3.943v-46.113
				c0-2.178,1.766-3.943,3.943-3.943h46.113c2.178,0,3.943,1.766,3.943,3.943V724.086z"/>
			<path fill="#EDE2F7" d="M774.192,673.364c0,2.051-1.662,3.666-3.713,3.666h-42.952c-2.05,0-3.711-1.615-3.711-3.666l6.362-17.561
				c0-2.049,1.661-3.773,3.712-3.773h29.166c2.049,0,3.712,1.725,3.712,3.773L774.192,673.364z"/>
		</g>
	</g>
	<g>
		<g>
			<path fill="#F7F7F7" d="M400.45,72.794c-0.526,1.041-1.798,1.458-2.838,0.931l-21.971-11.11
				c-1.041-0.526-1.458-1.798-0.933-2.839l11.111-21.97c0.527-1.042,1.797-1.458,2.839-0.932l21.97,11.11
				c1.042,0.528,1.459,1.799,0.932,2.84L400.45,72.794z"/>
			<path fill="#EDE2F7" d="M411.467,48.252c-0.497,0.981-1.822,1.629-2.803,1.133l-20.542-10.388
				c-0.98-0.496-1.244-1.948-0.749-2.929l7.332-6.939c0.496-0.98,1.748-1.482,2.729-0.987l13.948,7.054
				c0.979,0.496,1.317,1.801,0.822,2.782L411.467,48.252z"/>
		</g>
		<g>
			<path fill="#F7F7F7" d="M447,138.042c0,1.65-1.338,2.988-2.988,2.988h-35.023c-1.65,0-2.988-1.338-2.988-2.988v-35.023
				c0-1.65,1.338-2.988,2.988-2.988h35.023c1.65,0,2.988,1.338,2.988,2.988V138.042z"/>
			<path fill="#EDE2F7" d="M444.479,99.426c0,1.554-1.26,2.604-2.814,2.604h-32.552c-1.553,0-2.813-1.05-2.813-2.604l4.822-13.423
				c0-1.553,1.259-2.974,2.813-2.974h22.104c1.553,0,2.813,1.421,2.813,2.974L444.479,99.426z"/>
		</g>
	</g>
	<g>
		<path fill="#FFE524" d="M964.614,664.458c8.035-8.043,11.212-17.229,38.738-9.515c0.981,0.275,1.841,0.6,2.612,0.956
			c27.172-8.244,62.395,2.009,88.964,28.551c27.474,27.444,37.545,64.159,27.747,91.68c6.929,8.925,13.884,19.892,13.889,27.958
			c0.006,11.37-30.633,17.614-41.248,7.01c-0.854-0.854-1.762-1.624-2.693-2.348c0.006,0,0.012-0.002,0.018-0.003
			c0,0-1.396-50.471-17.58-79.408c-17.19-30.737-102.824-21.359-107.555-4.625c-1.341-8.344-1.396-16.546-0.097-24.271
			C967.404,700.427,956.581,672.5,964.614,664.458z"/>
		<path fill="#FFEF5C" d="M1049.96,810.995c11.693,0.636,24.979,0.092,40.032-1.9C1077.927,813.509,1064.06,814.071,1049.96,810.995
			z"/>
		<path fill="#FFE20D" d="M1092.623,808.75c-0.891,0.126-1.753,0.229-2.631,0.345c0.695-0.255,1.389-0.511,2.07-0.79
			C1092.254,808.445,1092.435,808.603,1092.623,808.75z"/>
		<path fill="#F7CE26" d="M1075.061,729.338c21.921,27.562,17.58,79.408,17.58,79.408c-0.006,0.001-0.012,0.003-0.018,0.003
			c-0.188-0.146-0.369-0.305-0.561-0.445c-0.682,0.279-1.375,0.535-2.07,0.79c-15.053,1.992-28.339,2.536-40.032,1.9
			c-18.096-3.948-36.568-13.88-52.09-29.385c-16.907-16.89-27.213-37.289-30.364-56.896
			C972.236,707.979,1035.189,679.208,1075.061,729.338z"/>
	</g>
	<g>
		<circle fill="#FFEF5C" cx="1001.939" cy="797.567" r="78.086"/>
		<circle fill="#FFFED7" cx="1002.022" cy="797.839" r="70.105"/>
		<circle fill="#EEC25F" cx="1001.766" cy="797.459" r="60.753"/>
		<circle fill="#FFFED7" cx="1002.071" cy="797.776" r="11.644"/>
		
			<line fill="none" stroke="#FFFED7" stroke-width="1.9404" stroke-miterlimit="10" x1="998.904" y1="808.982" x2="985.24" y2="855.922"/>
		
			<line fill="none" stroke="#FFFED7" stroke-width="1.9404" stroke-miterlimit="10" x1="1000.976" y1="737.174" x2="1000.359" y2="786.059"/>
		
			<line fill="none" stroke="#FFFED7" stroke-width="1.9404" stroke-miterlimit="10" x1="951.476" y1="764.659" x2="992.025" y2="791.966"/>
		
			<line fill="none" stroke="#FFFED7" stroke-width="1.9404" stroke-miterlimit="10" x1="1010.227" y1="804.119" x2="1050.777" y2="831.425"/>
		
			<line fill="none" stroke="#FFFED7" stroke-width="2.0384" stroke-miterlimit="10" x1="1011.328" y1="794.886" x2="1062.801" y2="778.72"/>
		
			<line fill="none" stroke="#FFFED7" stroke-width="2.0384" stroke-miterlimit="10" x1="944.577" y1="817.021" x2="996.051" y2="800.856"/>
	</g>
	<g>
		
			<ellipse transform="matrix(0.2697 -0.963 0.963 0.2697 -71.6582 580.251)" fill="#6D6D6D" cx="346.702" cy="337.366" rx="22.738" ry="26.718"/>
		<circle fill="#B2B2B2" cx="342.87" cy="336.293" r="22.738"/>
	</g>
	<g>
		
			<ellipse transform="matrix(0.2697 -0.963 0.963 0.2697 -164.8315 660.8665)" fill="#6D6D6D" cx="353.267" cy="439.1" rx="13.863" ry="16.29"/>
		<circle fill="#B2B2B2" cx="350.931" cy="438.446" r="13.864"/>
	</g>
	<g>
		
			<ellipse transform="matrix(0.2697 -0.963 0.963 0.2697 -150.3278 705.99)" fill="#6D6D6D" cx="390.267" cy="452.1" rx="13.863" ry="16.29"/>
		<circle fill="#B2B2B2" cx="387.931" cy="451.446" r="13.864"/>
	</g>
	<g>
		
			<ellipse transform="matrix(0.2697 -0.963 0.963 0.2697 -96.3105 727.2128)" fill="#6D6D6D" cx="431.267" cy="427.1" rx="13.863" ry="16.29"/>
		<circle fill="#B2B2B2" cx="428.931" cy="426.446" r="13.864"/>
	</g>
	<g>
		
			<ellipse transform="matrix(0.2697 -0.9629 0.9629 0.2697 92.5981 627.0898)" fill="#C1875D" cx="459.718" cy="252.498" rx="16.389" ry="19.259"/>
		<circle fill="#C4A182" cx="456.956" cy="251.725" r="16.39"/>
	</g>
	<g>
		
			<ellipse transform="matrix(0.2697 -0.963 0.963 0.2697 156.4645 652.1853)" fill="#C1875D" cx="508.19" cy="222.942" rx="16.389" ry="19.259"/>
		<circle fill="#C4A182" cx="505.427" cy="222.169" r="16.39"/>
	</g>
	<g>
		
			<ellipse transform="matrix(0.2697 -0.963 0.963 0.2697 -153.0613 500.9209)" fill="#6D6D6D" cx="253.702" cy="351.366" rx="22.738" ry="26.718"/>
		<circle fill="#B2B2B2" cx="249.87" cy="350.293" r="22.738"/>
	</g>
	<g>
		
			<ellipse transform="matrix(0.2697 -0.963 0.963 0.2697 -264.6612 756.3731)" fill="#6D6D6D" cx="366.31" cy="552.665" rx="31.566" ry="37.09"/>
		<circle fill="#B2B2B2" cx="360.99" cy="551.175" r="31.566"/>
	</g>
	<g>
		
			<ellipse transform="matrix(0.2697 -0.963 0.963 0.2697 -180.8022 842.9417)" fill="#6D6D6D" cx="465.31" cy="540.665" rx="31.566" ry="37.09"/>
		<circle fill="#B2B2B2" cx="459.99" cy="539.175" r="31.566"/>
	</g>
	<g>
		
			<ellipse transform="matrix(0.2697 -0.963 0.963 0.2697 -323.2508 649.1225)" fill="#6D6D6D" cx="266.31" cy="537.665" rx="31.566" ry="37.09"/>
		<circle fill="#B2B2B2" cx="260.99" cy="536.175" r="31.566"/>
	</g>
	<g>
		<path fill="#B9F24C" d="M581,740.03c0,11.046-8.954,20-20,20H245c-11.046,0-20-8.954-20-20v-96c0-11.046,8.954-20,20-20h316
			c11.046,0,20,8.954,20,20V740.03z"/>
		<circle fill="#DBEFB1" cx="400.907" cy="693.088" r="55.323"/>
		<circle fill="#DBEFB1" cx="248.013" cy="736.982" r="17.429"/>
		<circle fill="#DBEFB1" cx="248.013" cy="644.982" r="17.429"/>
		<circle fill="#DBEFB1" cx="556.013" cy="644.982" r="17.429"/>
		<circle fill="#DBEFB1" cx="556.013" cy="738.982" r="17.429"/>
	</g>
	<path fill="#FFF9C5" d="M158,253.929c0,8.941-12.176,16.101-26.959,16.101H58.768C43.984,270.03,32,262.871,32,253.929v-43.71
		c0-8.941,11.984-16.189,26.768-16.189h72.273c14.784,0,26.959,7.248,26.959,16.189V253.929z"/>
	<path fill="#FFF9C5" d="M158,364.595c0,8.742-12.176,15.435-26.959,15.435H58.768C43.984,380.03,32,373.337,32,364.595v-42.737
		c0-8.742,11.984-15.829,26.768-15.829h72.273c14.784,0,26.959,7.086,26.959,15.829V364.595z"/>
	<path fill="#FFF9C5" d="M158,463.136c0,8.226-12.176,14.894-26.959,14.894H58.768C43.984,478.03,32,471.362,32,463.136v-40.213
		c0-8.226,11.984-14.894,26.768-14.894h72.273c14.784,0,26.959,6.668,26.959,14.894V463.136z"/>
	<path fill="#FFF9C5" d="M158,578.256c0,9.289-12.176,16.773-26.959,16.773H58.768C43.984,595.03,32,587.545,32,578.256v-45.408
		c0-9.289,11.984-16.818,26.768-16.818h72.273c14.784,0,26.959,7.529,26.959,16.818V578.256z"/>
	<path fill="#FFF9C5" d="M158,718.03c0,11.046-12.176,20-26.959,20H58.768c-14.784,0-26.768-8.954-26.768-20v-54
		c0-11.046,11.984-20,26.768-20h72.273c14.784,0,26.959,8.954,26.959,20V718.03z"/>
	<g>
		<rect x="52.547" y="219.18" fill="none" width="95.675" height="52.434"/>
		<text transform="matrix(1 0 0 1 52.5474 240.5835)" fill="#085AFF" font-family="'Candara-Bold'" font-size="31">Penny</text>
	</g>
	<g>
		<rect x="53.923" y="332.365" fill="none" width="98.299" height="52.434"/>
		<text transform="matrix(1 0 0 1 53.9229 353.7681)" fill="#085AFF" font-family="'Candara-Bold'" font-size="31">Nickel</text>
	</g>
	<g>
		<rect x="56.547" y="431.592" fill="none" width="95.675" height="52.434"/>
		<text transform="matrix(1 0 0 1 56.5474 452.9956)" fill="#085AFF" font-family="'Candara-Bold'" font-size="31">Dime</text>
	</g>
	<g>
		<rect x="41.923" y="544.533" fill="none" width="116.077" height="52.434"/>
		<text transform="matrix(1 0 0 1 41.9229 565.936)" fill="#085AFF" font-family="'Candara-Bold'" font-size="31">Quarter</text>
	</g>
	<g>
		<rect x="54.547" y="678.974" fill="none" width="105.453" height="52.434"/>
		<text transform="matrix(1 0 0 1 54.5474 700.3774)" fill="#085AFF" font-family="'Candara-Bold'" font-size="31">Dollar</text>
	</g>
</g>
</svg>
