<?xml version="1.0" encoding="utf-8"?>
<!-- Generator: Adobe Illustrator 15.1.0, SVG Export Plug-In . SVG Version: 6.00 Build 0)  -->
<!DOCTYPE svg PUBLIC "-//W3C//DTD SVG 1.1//EN" "http://www.w3.org/Graphics/SVG/1.1/DTD/svg11.dtd">
<svg version="1.1" id="Layer_1" xmlns="http://www.w3.org/2000/svg" xmlns:xlink="http://www.w3.org/1999/xlink" x="0px" y="0px"
	 width="431px" height="621px" viewBox="0 0 431 621" enable-background="new 0 0 431 621" xml:space="preserve">
<pattern  x="-105" y="-95" width="63" height="63" patternUnits="userSpaceOnUse" id="New_Pattern_Swatch_1" viewBox="0 -63 63 63" overflow="visible">
	<g>
		<polygon fill="none" points="0,0 63,0 63,-63 0,-63 		"/>
		<polygon fill="#D13F34" points="63,0 0,0 0,-63 63,-63 		"/>
		<path fill="#F7F0E4" d="M16-48.299C16-47.582,15.419-47,14.702-47H1.298C0.581-47,0-47.582,0-48.299v-13.402
			C0-62.418,0.581-63,1.298-63h13.404C15.419-63,16-62.418,16-61.701V-48.299z"/>
		<path fill="#F7F0E4" d="M32-32.299C32-31.582,31.419-31,30.702-31H17.298C16.581-31,16-31.582,16-32.299v-13.402
			C16-46.418,16.581-47,17.298-47h13.404C31.419-47,32-46.418,32-45.701V-32.299z"/>
		<path fill="#F7F0E4" d="M47-48.299C47-47.582,46.419-47,45.701-47H32.299C31.581-47,31-47.582,31-48.299v-13.402
			C31-62.418,31.581-63,32.299-63h13.402C46.419-63,47-62.418,47-61.701V-48.299z"/>
		<path fill="#F7F0E4" d="M16-16.299C16-15.582,15.419-15,14.702-15H1.298C0.581-15,0-15.582,0-16.299v-13.402
			C0-30.418,0.581-31,1.298-31h13.404C15.419-31,16-30.418,16-29.701V-16.299z"/>
		<path fill="#F7F0E4" d="M32-1.578C32-0.707,31.356,0,30.563,0H17.438C16.644,0,16-0.707,16-1.578v-12.844
			C16-15.293,16.644-16,17.438-16h13.125C31.356-16,32-15.293,32-14.422V-1.578z"/>
		<path fill="#F7F0E4" d="M47-16.299C47-15.582,46.419-15,45.701-15H32.299C31.581-15,31-15.582,31-16.299v-13.402
			C31-30.418,31.581-31,32.299-31h13.402C46.419-31,47-30.418,47-29.701V-16.299z"/>
		<path fill="#F7F0E4" d="M63-32.299C63-31.582,62.419-31,61.702-31H48.298C47.581-31,47-31.582,47-32.299v-13.402
			C47-46.418,47.581-47,48.298-47h13.404C62.419-47,63-46.418,63-45.701V-32.299z"/>
		<path fill="#F7F0E4" d="M63-1.461C63-0.654,62.374,0,61.602,0H48.648C47.876,0,47-0.654,47-1.461v-12.828
			C47-15.096,47.876-16,48.648-16h12.953C62.374-16,63-15.096,63-14.289V-1.461z"/>
	</g>
</pattern>
<g>
	<path fill="#FFF800" d="M249.887,341.754c0-10.113-24.152-19.458-20.501-23.11c11.858-11.858,49.821-14.435,12.001-26.435
		c-9.088-2.883-13.881-0.164-13.881-11.4c0-11.235,35.011-14.966,12.506-47.19c-1.265-1.811-3.655-3.61-5.984-5.986
		c-4.119-0.233-8.291-0.366-12.521-0.366c-58.729,0-107.66,23.006-118.528,53.492c-8.354,1.309-14.619,6.707-14.619,13.175
		c0,6.542,6.408,11.992,14.907,13.221c11.428,30.091,60.021,52.696,118.239,52.696c2.12,0,4.223-0.039,6.316-0.098
		c-5.398-0.063-10.928-0.159-16.609-0.291C211.213,359.461,249.887,351.865,249.887,341.754z"/>
	<path fill="#FFEC00" d="M339.666,307.351c9.409-0.647,16.771-6.406,16.771-13.418c0-6.94-7.212-12.65-16.481-13.396
		c-10.229-28.183-53.015-49.912-105.929-52.905c2.329,2.376,4.764,4.146,5.984,5.986c19.135,28.854-12.506,35.955-12.506,47.19
		c0,11.236,2.117,10.402,10.674,14.607c19.843,9.752-7.022,17.696-10.674,21.348c-3.651,3.652-0.764,11.596,4.494,20.235
		c7.464,12.264-20.787,22.462-20.787,22.462c5.682,0.132,11.211,0.228,16.609,0.291
		C283.082,358.188,328.523,336.248,339.666,307.351z"/>
</g>
<circle fill="#FFF876" cx="171.697" cy="284.888" r="15.169"/>
<circle fill="#FFF876" cx="283.696" cy="284.888" r="15.169"/>
<path fill="none" stroke="#FFB600" stroke-width="5" stroke-linecap="round" stroke-miterlimit="10" d="M133.674,311.292
	c0,0,84.269,68.539,179.775,0"/>
<path fill="#FFB600" d="M227.506,316.764c0,0,15.404,4.528,20.404-0.472s-1.063-13.613-1.063-13.613L227.506,316.764z"/>
<path fill="#FFCE00" d="M339.666,307.351l4.286-7.294c0,0,9.845-0.176,11.54-1.871S349.712,307.351,339.666,307.351z"/>
<path fill="#FFEC00" d="M88.36,293.926c0,0,4.786,4.074,9.712,4.074s4.928,0,4.928,0l0.267,9.153
	C103.267,307.153,90.292,305.045,88.36,293.926z"/>
<circle fill="#FFB600" cx="176.216" cy="289.407" r="4.519"/>
<circle fill="#FFB600" cx="286.215" cy="289.407" r="4.519"/>
<path fill="#FFEC00" d="M232,366c0,3.313-2.687,6-6,6l0,0c-3.313,0-6-2.687-6-6v-4c0-3.313,2.687-6,6-6l0,0c3.313,0,6,2.687,6,6V366
	z"/>
<circle fill="#FFFED7" cx="171.794" cy="285.975" r="3.914"/>
<circle fill="#FFFED7" cx="281.794" cy="285.975" r="3.914"/>
<ellipse fill="#FFF800" cx="286.086" cy="307.641" rx="11.305" ry="4.359"/>
<ellipse fill="#FFF800" cx="239.455" cy="349.561" rx="6.674" ry="3.163"/>
<ellipse fill="#FFEC00" cx="173.086" cy="307.641" rx="11.305" ry="4.359"/>
<g>
	<g>
		<path fill="#A100FF" d="M-443.099,144.266c-1.942-7.215-9.529-12.36-11.645-13.676c-17,1.664-29.865,9.427-29.865,18.759
			c0,10.545,16.422,19.093,36.681,19.093c2.222,0,4.394-0.108,6.507-0.306C-441.32,162.792-441.323,150.862-443.099,144.266z"/>
		<path fill="#8800FF" d="M-411.247,149.349c0-10.545-16.423-19.093-36.681-19.093c-2.33,0-4.606,0.118-6.815,0.334
			c2.116,1.316,9.702,6.461,11.645,13.676c1.775,6.596,1.779,18.526,1.678,23.871C-424.268,166.538-411.247,158.737-411.247,149.349
			z"/>
	</g>
	<path fill="#8800FF" d="M-472.25,163.808c0,0,2.553,17.57,22.25,21.751c15.937,3.383,44.326-6.146,37.753-17.401
		c-5.382-9.217-5.382-9.217-5.382-9.217S-440.348,172.992-472.25,163.808z"/>
</g>
<g>
	<path fill="#2FEF00" d="M229.443,367c-21.7,0-39.292,26.791-39.292,59.839s17.592,59.839,39.292,59.839
		c0.521,0,1.038-0.029,1.555-0.06C252.967,420.74,229.443,367,229.443,367z"/>
	<path fill="#21E000" d="M268.734,426.839c0-33.048-17.592-59.839-39.291-59.839c0,0,23.523,53.74,1.555,119.618
		C251.977,485.373,268.734,459.093,268.734,426.839z"/>
</g>
<rect x="29" y="133" fill="#9B834C" width="28" height="312"/>
<rect fill="#9B834C" width="431" height="193"/>
<rect x="379" y="149" fill="#9B834C" width="29" height="315"/>
<path fill="#9B834C" d="M397,578.055C397,601.773,377.779,621,354.063,621H76.783C53.065,621,34,601.773,34,578.055V449.461
	C34,425.742,53.065,407,76.783,407h277.279C377.779,407,397,425.742,397,449.461V578.055z"/>
<path opacity="0.48" fill="#6D5037" d="M396,552.399C396,569.336,377.567,582,353.85,582H76.858C53.141,582,34,569.336,34,552.399
	V460.4c0-16.936,19.141-30.4,42.858-30.4H353.85c23.718,0,42.15,13.465,42.15,30.4V552.399z"/>
<pattern  id="SVGID_1_" xlink:href="#New_Pattern_Swatch_1" patternTransform="matrix(2.1472 0 0 2.1472 8542.9102 7791.167)">
</pattern>
<path fill="url(#SVGID_1_)" d="M406,514.241C406,539.08,385.896,558,361.859,558H68.85C44.811,558,26,539.08,26,514.241v-63.148
	C26,426.253,44.811,407,68.85,407h293.01C385.896,407,406,426.253,406,451.093V514.241z"/>
<g>
	<g>
		<path fill="#8080FF" d="M87,431.776c0-0.002,0-0.008,0-0.015C87,431.752,87,432.085,87,431.776z"/>
		<path fill="#8080FF" d="M76.463,375L87,431.762v0.015c0,0,0-0.018,0,0c0,5.381,10.561,9.747,21.816,9.747
			c5.033,0,10.349-0.942,13.907-2.389L132.973,375H76.463z"/>
		<path fill="#7676E5" d="M129,431.776c0-0.021,0-0.776,0-0.776h0.633l12.537-56h-10.197l-9.855,64.135
			C126.513,437.343,129,434.746,129,431.776z"/>
		<path fill="#8080FF" d="M130,431.762c0,0.003,0,0.01,0,0.015C130,432.085,130,431.75,130,431.762z"/>
	</g>
	<path fill="#F5F5F5" d="M143.151,375.224c0,6.798-14.929,12.313-33.343,12.313c-18.416,0-33.346-5.515-33.346-12.313
		c0-6.804,14.93-12.315,33.346-12.315C128.223,362.908,143.151,368.42,143.151,375.224z"/>
	<g>
		<path fill="#D6E1E5" d="M109.827,364.125c-7.838,0-14.977,1.042-20.337,2.745l2.472,16.175c5,1.281,11.177,2.039,17.865,2.039
			c16.645,0,30.136-4.691,30.136-10.48C139.963,368.816,126.472,364.125,109.827,364.125z"/>
		<path fill="#C7D1D3" d="M79.688,374.604c0,3.464,4.832,6.533,12.274,8.441L89.49,366.87
			C83.468,368.786,79.688,371.541,79.688,374.604z"/>
	</g>
</g>
<g>
	<path fill="#FFE524" d="M299.71,390.678c2.52-2.523,3.514-5.402,12.143-2.984c0.309,0.088,0.577,0.188,0.817,0.301
		c8.518-2.584,19.558,0.628,27.889,8.948c8.61,8.604,11.77,20.111,8.696,28.737c2.173,2.799,4.353,6.236,4.355,8.766
		c0,3.565-9.604,5.569-12.933,2.243c-0.266-0.268-0.55-0.688-0.842-0.688c0.002,0,0.004,0,0.004,0s-0.437-15.868-5.511-24.939
		c-5.388-9.633-32.23-6.717-33.714-1.475c-0.419-2.613-0.438-5.193-0.029-7.617C300.584,401.964,297.191,393.197,299.71,390.678z"/>
	<path fill="#FFEF5C" d="M326.461,436.609c3.666,0.199,7.831,0.029,12.549-0.596C335.229,437.397,330.882,437.574,326.461,436.609z"
		/>
	<path fill="#FFE20D" d="M339.836,435.907c-0.279,0.04-0.549,0.071-0.826,0.106c0.22-0.078,0.436-0.159,0.65-0.247
		C339.72,435.811,339.777,435.861,339.836,435.907z"/>
	<path fill="#F7CE26" d="M334.329,411.061C341.201,419.7,339.84,436,339.84,436s-0.002,0-0.004,0c-0.059,0-0.116-0.141-0.176-0.188
		c-0.215,0.089-0.431,0.145-0.65,0.225c-4.718,0.625-8.883,0.783-12.549,0.584c-5.672-1.237-11.461-4.354-16.328-9.217
		c-5.299-5.296-8.527-11.666-9.518-17.811C302.099,404.346,321.832,395.347,334.329,411.061z"/>
</g>
<g>
	<circle fill="#FFEF5C" cx="311.41" cy="432.401" r="24.477"/>
	<circle fill="#FFFED7" cx="311.436" cy="432.487" r="21.976"/>
	<circle fill="#EEC25F" cx="311.355" cy="432.368" r="19.043"/>
	<path fill="#FFFED7" d="M307.938,431.474c-0.547,1.94,0.581,3.958,2.521,4.507c1.938,0.545,3.957-0.583,4.507-2.52
		c0.547-1.941-0.581-3.958-2.521-4.507C310.504,428.407,308.486,429.533,307.938,431.474z"/>
	
		<line fill="none" stroke="#FFFED7" stroke-width="0.6083" stroke-miterlimit="10" x1="310.458" y1="435.98" x2="306.176" y2="450.693"/>
	
		<line fill="none" stroke="#FFFED7" stroke-width="0.6083" stroke-miterlimit="10" x1="311.108" y1="413.471" x2="310.914" y2="428.792"/>
	
		<line fill="none" stroke="#FFFED7" stroke-width="0.6083" stroke-miterlimit="10" x1="295.592" y1="422.084" x2="308.303" y2="430.646"/>
	
		<line fill="none" stroke="#FFFED7" stroke-width="0.6083" stroke-miterlimit="10" x1="314.006" y1="434.453" x2="326.717" y2="443.014"/>
	
		<line fill="none" stroke="#FFFED7" stroke-width="0.639" stroke-miterlimit="10" x1="314.352" y1="431.561" x2="330.488" y2="426.492"/>
	
		<line fill="none" stroke="#FFFED7" stroke-width="0.639" stroke-miterlimit="10" x1="293.43" y1="438.499" x2="309.563" y2="433.43"/>
</g>
<g>
	<path fill="#FFEF5C" d="M120.373,460.099c-3.678,13.01,3.888,26.535,16.896,30.212c13.006,3.676,26.534-3.887,30.212-16.896
		c3.676-13.009-3.888-26.533-16.897-30.212C137.576,439.524,124.048,447.09,120.373,460.099z"/>
	<circle fill="#FFFED7" cx="143.953" cy="466.843" r="21.975"/>
	<circle fill="#EEC25F" cx="143.872" cy="466.723" r="19.044"/>
	<circle fill="#FFFED7" cx="143.968" cy="466.823" r="3.65"/>
	
		<line fill="none" stroke="#FFFED7" stroke-width="0.6083" stroke-miterlimit="10" x1="142.975" y1="470.336" x2="138.693" y2="485.047"/>
	
		<line fill="none" stroke="#FFFED7" stroke-width="0.6083" stroke-miterlimit="10" x1="143.625" y1="447.826" x2="143.43" y2="463.147"/>
	
		<line fill="none" stroke="#FFFED7" stroke-width="0.6083" stroke-miterlimit="10" x1="128.108" y1="456.44" x2="140.82" y2="465.002"/>
	
		<line fill="none" stroke="#FFFED7" stroke-width="0.6083" stroke-miterlimit="10" x1="146.523" y1="468.81" x2="159.234" y2="477.369"/>
	
		<line fill="none" stroke="#FFFED7" stroke-width="0.639" stroke-miterlimit="10" x1="146.869" y1="465.915" x2="163.006" y2="460.848"/>
	
		<line fill="none" stroke="#FFFED7" stroke-width="0.639" stroke-miterlimit="10" x1="125.946" y1="472.854" x2="142.08" y2="467.786"/>
</g>
<rect y="167" opacity="0.48" fill="#6D5037" width="431" height="27"/>
<g>
	<g>
		<path fill="#FFE524" d="M164.445,37.97c3.285-5.881,3.617-11.632,20.557-11.669c0.604-0.002,1.146,0.045,1.644,0.121
			c14.166-9.079,35.904-8.911,55.33,1.943c20.093,11.221,31.753,30.533,30.599,47.807c5.391,3.97,11.126,9.104,12.429,13.703
			c1.837,6.484-14.63,14.981-22.391,10.646c-0.628-0.35-1.267-0.643-1.915-0.904c0.004-0.003,0.008-0.003,0.01-0.007
			c0,0-8.931-28.554-22.825-42.446c-14.755-14.756-62.075,4.394-62.077,14.697c-2.107-4.541-3.461-9.209-3.965-13.824
			C171.834,58.03,161.16,43.85,164.445,37.97z"/>
		<path fill="#FFE20D" d="M259.511,99.617c-0.487,0.215-0.962,0.412-1.443,0.619c0.356-0.257,0.709-0.515,1.054-0.782
			C259.253,99.502,259.381,99.563,259.511,99.617z"/>
		<path fill="#F7CE26" d="M239.445,55.603c20.4,15.627,21.262,44.008,21.262,44.008c-0.002,0.004-0.006,0.004-0.01,0.007
			c-0.131-0.055-0.259-0.115-0.391-0.163c-0.344,0.268-0.7,0.525-1.054,0.782c-8.263,3.563-15.753,6.016-22.522,7.538
			c-10.955,0.664-23.088-2.023-34.438-8.362c-12.364-6.904-21.528-16.877-26.487-27.551
			C175.807,61.558,209.313,32.522,239.445,55.603z"/>
	</g>
	<g>
		<circle fill="#FFEF5C" cx="205.999" cy="107.855" r="46.271"/>
		<circle fill="#FFFED7" cx="206.088" cy="107.999" r="41.543"/>
		<circle fill="#EEC25F" cx="205.883" cy="107.822" r="36.001"/>
		<path fill="#FFFED7" d="M199.207,107.955c0,3.812,3.09,6.899,6.901,6.899c3.811,0,6.896-3.088,6.896-6.899
			c0-3.813-3.086-6.899-6.896-6.899C202.297,101.056,199.207,104.142,199.207,107.955z"/>
		
			<line fill="none" stroke="#FFFED7" stroke-width="1.1499" stroke-miterlimit="10" x1="206.108" y1="114.854" x2="205.881" y2="143.826"/>
		
			<line fill="none" stroke="#FFFED7" stroke-width="1.1499" stroke-miterlimit="10" x1="195.715" y1="73.574" x2="203.242" y2="101.548"/>
		
			<line fill="none" stroke="#FFFED7" stroke-width="1.1499" stroke-miterlimit="10" x1="171.919" y1="97.226" x2="199.442" y2="106.263"/>
		
			<line fill="none" stroke="#FFFED7" stroke-width="1.1499" stroke-miterlimit="10" x1="211.779" y1="110.258" x2="239.304" y2="119.293"/>
		
			<line fill="none" stroke="#FFFED7" stroke-width="1.2079" stroke-miterlimit="10" x1="210.921" y1="104.815" x2="237.667" y2="87.3"/>
		
			<line fill="none" stroke="#FFFED7" stroke-width="1.2079" stroke-miterlimit="10" x1="176.425" y1="128.195" x2="203.17" y2="110.681"/>
	</g>
</g>
<ellipse fill="#FFF876" cx="241.079" cy="302.278" rx="4.775" ry="3.222"/>
<path fill="none" stroke="#FFF800" stroke-width="7.0501" stroke-linecap="round" stroke-miterlimit="10" d="M203.411,380.143
	c0,0-46.396,30.542-19.859,46.52c26.537,15.978,44.003,20.616,44.003,20.616"/>
<path fill="none" stroke="#FFEC00" stroke-width="5.7403" stroke-linecap="round" stroke-miterlimit="10" d="M206.067,380.013
	c0,0-44.388,29.221-19,44.507c25.389,15.286,42.099,19.724,42.099,19.724"/>
<path fill="none" stroke="#FFB600" stroke-width="5" stroke-linecap="round" stroke-miterlimit="10" d="M210.082,236.114
	c0,0,9.577,8.622,22.699,2.874s-19.643-16.964-19.643-11.356s31.399,0.435,18.861-5.313s-26.129,1.082-17-8.047"/>
<polygon fill="#2FEF00" points="217.396,369.87 193.109,377.604 204.196,392.353 "/>
</svg>
